<?xml version="1.0" encoding="utf-8" standalone="no"?>
<!DOCTYPE svg PUBLIC "-//W3C//DTD SVG 1.1//EN"
  "http://www.w3.org/Graphics/SVG/1.1/DTD/svg11.dtd">
<svg xmlns:xlink="http://www.w3.org/1999/xlink" width="187.2pt" height="187.2pt" viewBox="0 0 187.2 187.2" xmlns="http://www.w3.org/2000/svg" version="1.1">
 <metadata>
  <rdf:RDF xmlns:dc="http://purl.org/dc/elements/1.1/" xmlns:cc="http://creativecommons.org/ns#" xmlns:rdf="http://www.w3.org/1999/02/22-rdf-syntax-ns#">
   <cc:Work>
    <dc:type rdf:resource="http://purl.org/dc/dcmitype/StillImage"/>
    <dc:date>2025-12-11T05:55:14.160500</dc:date>
    <dc:format>image/svg+xml</dc:format>
    <dc:creator>
     <cc:Agent>
      <dc:title>Matplotlib v3.10.8, https://matplotlib.org/</dc:title>
     </cc:Agent>
    </dc:creator>
   </cc:Work>
  </rdf:RDF>
 </metadata>
 <defs>
  <style type="text/css">*{stroke-linejoin: round; stroke-linecap: butt}</style>
 </defs>
 <g id="figure_1">
  <g id="patch_1">
   <path d="M 0 187.2 
L 187.2 187.2 
L 187.2 0 
L 0 0 
z
" style="fill: #ffffff"/>
  </g>
  <g id="axes_1">
   <g id="patch_2">
    <path d="M 93.6 27.36 
C 93.6 27.36 93.6 27.36 93.6 27.36 
L 93.6 47.232 
C 93.6 47.232 93.6 47.232 93.6 47.232 
z
" style="fill: #4da3ff"/>
   </g>
   <g id="patch_3">
    <path d="M 159.84 93.6 
C 159.84 84.901443 158.126574 76.287468 154.79778 68.251049 
C 151.468987 60.214631 146.589562 52.912056 140.438753 46.761247 
C 134.287944 40.610438 126.985369 35.731013 118.948951 32.40222 
C 110.912532 29.073426 102.298557 27.36 93.6 27.36 
C 84.901443 27.36 76.287468 29.073426 68.251049 32.40222 
C 60.214631 35.731013 52.912056 40.610438 46.761247 46.761247 
C 40.610438 52.912056 35.731013 60.214631 32.40222 68.251049 
C 29.073426 76.287468 27.36 84.901443 27.36 93.6 
C 27.36 102.298557 29.073426 110.912532 32.40222 118.948951 
C 35.731013 126.985369 40.610438 134.287944 46.761247 140.438753 
C 52.912056 146.589562 60.214631 151.468987 68.251049 154.79778 
C 76.287468 158.126574 84.901443 159.84 93.6 159.84 
C 102.298557 159.84 110.912532 158.126574 118.948951 154.79778 
C 126.985369 151.468987 134.287944 146.589562 140.438753 140.438753 
C 146.589562 134.287944 151.468987 126.985369 154.79778 118.948951 
C 158.126574 110.912532 159.84 102.298557 159.84 93.6 
M 139.968 93.6 
C 139.968 99.68899 138.768602 105.718772 136.438446 111.344265 
C 134.108291 116.969759 130.692693 122.081561 126.387127 126.387127 
C 122.081561 130.692693 116.969759 134.108291 111.344265 136.438446 
C 105.718772 138.768602 99.68899 139.968 93.6 139.968 
C 87.51101 139.968 81.481228 138.768602 75.855735 136.438446 
C 70.230241 134.108291 65.118439 130.692693 60.812873 126.387127 
C 56.507307 122.081561 53.091709 116.969759 50.761554 111.344265 
C 48.431398 105.718772 47.232 99.68899 47.232 93.6 
C 47.232 87.51101 48.431398 81.481228 50.761554 75.855735 
C 53.091709 70.230241 56.507307 65.118439 60.812873 60.812873 
C 65.118439 56.507307 70.230241 53.091709 75.855735 50.761554 
C 81.481228 48.431398 87.51101 47.232 93.6 47.232 
C 99.68899 47.232 105.718772 48.431398 111.344265 50.761554 
C 116.969759 53.091709 122.081561 56.507307 126.387127 60.812873 
C 130.692693 65.118439 134.108291 70.230241 136.438446 75.855735 
C 138.768602 81.481228 139.968 87.51101 139.968 93.6 
z
" style="fill: #d9eaff"/>
   </g>
   <g id="matplotlib.axis_1"/>
   <g id="matplotlib.axis_2"/>
   <g id="text_1">
    <!-- 0% -->
    <g transform="translate(80.0325 98.04875) scale(0.16 -0.16)">
     <defs>
      <path id="NanumGothic-30" d="M 3066 2093 
Q 3066 4102 1965 4102 
Q 864 4102 864 2093 
Q 864 77 1965 77 
Q 3066 77 3066 2093 
z
M 3526 2093 
Q 3526 -326 1965 -326 
Q 390 -326 390 2093 
Q 390 3098 698 3725 
Q 1088 4512 1965 4512 
Q 2829 4512 3226 3725 
Q 3373 3411 3449 3008 
Q 3526 2605 3526 2093 
z
" transform="scale(0.015625)"/>
      <path id="NanumGothic-25" d="M 2522 3283 
Q 2522 4192 1869 4192 
Q 1222 4192 1222 3283 
Q 1222 2906 1357 2675 
Q 1536 2381 1869 2381 
Q 2208 2381 2387 2675 
Q 2522 2906 2522 3283 
z
M 5741 986 
Q 5741 1888 5094 1888 
Q 4435 1888 4435 986 
Q 4435 614 4576 378 
Q 4742 77 5094 77 
Q 5741 77 5741 986 
z
M 4992 4659 
Q 5075 4659 5081 4646 
Q 5088 4634 5050 4563 
L 2342 -282 
Q 2298 -358 2275 -371 
Q 2253 -384 2163 -384 
L 1978 -384 
Q 1888 -384 1878 -371 
Q 1869 -358 1920 -269 
L 4621 4576 
Q 4653 4640 4672 4649 
Q 4691 4659 4762 4659 
L 4992 4659 
z
M 2944 3283 
Q 2944 2714 2694 2387 
Q 2554 2208 2346 2112 
Q 2138 2016 1869 2016 
Q 1600 2016 1395 2112 
Q 1190 2208 1050 2387 
Q 800 2726 800 3283 
Q 800 3853 1050 4192 
Q 1338 4557 1869 4557 
Q 2406 4557 2694 4192 
Q 2944 3866 2944 3283 
z
M 6163 986 
Q 6163 410 5914 83 
Q 5632 -275 5094 -275 
Q 4550 -275 4269 83 
Q 4026 403 4026 986 
Q 4026 1562 4269 1894 
Q 4410 2074 4618 2170 
Q 4826 2266 5094 2266 
Q 5638 2266 5914 1894 
Q 6163 1568 6163 986 
z
" transform="scale(0.015625)"/>
     </defs>
     <use xlink:href="#NanumGothic-30"/>
     <use xlink:href="#NanumGothic-25" transform="translate(60.599991 0)"/>
    </g>
   </g>
  </g>
 </g>
</svg>
