<?xml version="1.0" encoding="utf-8" standalone="no"?>
<!DOCTYPE svg PUBLIC "-//W3C//DTD SVG 1.1//EN"
  "http://www.w3.org/Graphics/SVG/1.1/DTD/svg11.dtd">
<svg xmlns:xlink="http://www.w3.org/1999/xlink" width="216pt" height="216pt" viewBox="0 0 216 216" xmlns="http://www.w3.org/2000/svg" version="1.1">
 <metadata>
  <rdf:RDF xmlns:dc="http://purl.org/dc/elements/1.1/" xmlns:cc="http://creativecommons.org/ns#" xmlns:rdf="http://www.w3.org/1999/02/22-rdf-syntax-ns#">
   <cc:Work>
    <dc:type rdf:resource="http://purl.org/dc/dcmitype/StillImage"/>
    <dc:date>2025-12-11T06:24:12.202172</dc:date>
    <dc:format>image/svg+xml</dc:format>
    <dc:creator>
     <cc:Agent>
      <dc:title>Matplotlib v3.10.8, https://matplotlib.org/</dc:title>
     </cc:Agent>
    </dc:creator>
   </cc:Work>
  </rdf:RDF>
 </metadata>
 <defs>
  <style type="text/css">*{stroke-linejoin: round; stroke-linecap: butt}</style>
 </defs>
 <g id="figure_1">
  <g id="patch_1">
   <path d="M 0 216 
L 216 216 
L 216 0 
L 0 0 
L 0 216 
z
" style="fill: none"/>
  </g>
  <g id="axes_1">
   <g id="patch_2">
    <path d="M 102.524474 43.056249 
C 94.025368 44.108669 85.808867 46.792373 78.327153 50.959664 
C 70.845439 55.126955 64.238311 60.699956 58.869324 67.372017 
C 53.500337 74.044079 49.469832 81.690521 46.999612 89.890545 
C 44.529392 98.090569 43.665605 106.690959 44.455798 115.218443 
C 45.245987 123.745926 47.675384 132.041159 51.610295 139.647658 
C 55.545207 147.254157 60.912124 154.029802 67.415681 159.601705 
C 73.919237 165.173608 81.437927 169.437666 89.557989 172.159236 
C 97.678053 174.880805 106.247763 176.009027 114.795536 175.481818 
C 123.34331 174.954609 131.70942 172.781816 139.433488 169.08301 
C 147.157557 165.384205 154.095247 160.228508 159.864788 153.899622 
C 165.63433 147.570737 170.127912 140.186916 173.098249 132.154514 
C 176.068587 124.122112 177.460181 115.591194 177.196447 107.031239 
C 176.932714 98.471284 175.018591 90.042247 171.559405 82.207937 
C 168.10022 74.373626 163.160596 67.280441 157.012385 61.318741 
C 150.864174 55.357042 143.622264 50.638218 135.685144 47.421932 
C 127.748024 44.205646 119.264014 42.552 110.699997 42.552 
L 110.699998 65.8368 
C 116.266609 65.8368 121.781215 66.91167 126.940343 69.002256 
C 132.099471 71.092842 136.806713 74.160077 140.80305 78.035182 
C 144.799388 81.910287 148.010143 86.520857 150.258613 91.613159 
C 152.507084 96.70546 153.751264 102.184335 153.922691 107.748305 
C 154.094118 113.312276 153.189582 118.857372 151.258862 124.078434 
C 149.328143 129.299495 146.407314 134.098979 142.657112 138.212755 
C 138.90691 142.32653 134.397412 145.677733 129.376767 148.081957 
C 124.356123 150.48618 118.918151 151.898496 113.362099 152.241182 
C 107.806046 152.583867 102.235735 151.850523 96.957693 150.081503 
C 91.679652 148.312483 86.792504 145.540845 82.565192 141.919108 
C 78.337881 138.297371 74.849385 133.893202 72.291692 128.948978 
C 69.733999 124.004754 68.154891 118.612852 67.641269 113.069988 
C 67.127644 107.527123 67.689105 101.93687 69.294748 96.606855 
C 70.900391 91.276839 73.520219 86.306651 77.010061 81.969811 
C 80.499902 77.632971 84.794535 74.01052 89.65765 71.301781 
C 94.520764 68.593042 99.861489 66.848635 105.385908 66.164562 
z
" style="fill: #4db6e8"/>
   </g>
   <g id="patch_3">
    <path d="M 110.700001 42.552 
C 109.333852 42.552 107.968043 42.594081 106.604485 42.678182 
C 105.240927 42.762284 103.880267 42.888367 102.524474 43.056249 
L 105.385908 66.164562 
C 106.267174 66.055439 107.151603 65.973485 108.037915 65.918818 
C 108.924228 65.864152 109.812004 65.8368 110.700001 65.8368 
z
" style="fill: #e8f4fb"/>
   </g>
   <g id="matplotlib.axis_1"/>
   <g id="matplotlib.axis_2"/>
   <g id="text_1">
    <!-- 전체 -->
    <g transform="translate(101.0975 113.495) scale(0.16 -0.16)">
     <defs>
      <path id="DejaVuSans-c804" d="M 319 -1131 
L 319 4513 
L 3519 4513 
L 3519 -1131 
L 319 -1131 
z
M 678 -775 
L 3163 -775 
L 3163 4153 
L 678 4153 
L 678 -775 
z
" transform="scale(0.015625)"/>
      <path id="DejaVuSans-ccb4" d="M 319 -1131 
L 319 4513 
L 3519 4513 
L 3519 -1131 
L 319 -1131 
z
M 678 -775 
L 3163 -775 
L 3163 4153 
L 678 4153 
L 678 -775 
z
" transform="scale(0.015625)"/>
     </defs>
     <use xlink:href="#DejaVuSans-c804"/>
     <use xlink:href="#DejaVuSans-ccb4" transform="translate(60.009766 0)"/>
    </g>
   </g>
  </g>
 </g>
</svg>
