<?xml version="1.0" encoding="utf-8" standalone="no"?>
<!DOCTYPE svg PUBLIC "-//W3C//DTD SVG 1.1//EN"
  "http://www.w3.org/Graphics/SVG/1.1/DTD/svg11.dtd">
<svg xmlns:xlink="http://www.w3.org/1999/xlink" width="216pt" height="216pt" viewBox="0 0 216 216" xmlns="http://www.w3.org/2000/svg" version="1.1">
 <metadata>
  <rdf:RDF xmlns:dc="http://purl.org/dc/elements/1.1/" xmlns:cc="http://creativecommons.org/ns#" xmlns:rdf="http://www.w3.org/1999/02/22-rdf-syntax-ns#">
   <cc:Work>
    <dc:type rdf:resource="http://purl.org/dc/dcmitype/StillImage"/>
    <dc:date>2025-12-11T06:24:12.226062</dc:date>
    <dc:format>image/svg+xml</dc:format>
    <dc:creator>
     <cc:Agent>
      <dc:title>Matplotlib v3.10.8, https://matplotlib.org/</dc:title>
     </cc:Agent>
    </dc:creator>
   </cc:Work>
  </rdf:RDF>
 </metadata>
 <defs>
  <style type="text/css">*{stroke-linejoin: round; stroke-linecap: butt}</style>
 </defs>
 <g id="figure_1">
  <g id="patch_1">
   <path d="M 0 216 
L 216 216 
L 216 0 
L 0 0 
L 0 216 
z
" style="fill: none"/>
  </g>
  <g id="axes_1">
   <g id="patch_2">
    <path d="M 83.640625 48.30365 
C 76.194674 51.618801 69.420948 56.274253 63.657597 62.037605 
C 57.894245 67.800956 53.238797 74.574682 49.923646 82.020633 
C 46.608495 89.466583 44.689747 97.458754 44.263176 105.598192 
C 43.836608 113.737629 44.909437 121.886597 47.428114 129.638285 
C 49.946792 137.389974 53.868697 144.613223 58.99804 150.947434 
C 64.127383 157.281646 70.377362 162.619631 77.435996 166.694937 
C 84.49463 170.770243 92.242467 173.513896 100.292728 174.788931 
C 108.342988 176.063971 116.559457 175.848809 124.531955 174.154201 
C 132.504451 172.459593 140.098082 169.314212 146.933755 164.875071 
C 153.769428 160.435929 159.731484 154.778148 164.522291 148.184165 
C 169.313098 141.590184 172.851579 134.171592 174.961112 126.298709 
C 177.070646 118.425826 177.715527 110.231896 176.863554 102.125938 
C 176.011585 94.019981 173.677175 86.139151 169.976874 78.876909 
C 166.276574 71.614666 161.273001 65.09388 155.215918 59.640058 
C 149.158835 54.186236 142.150732 49.891668 134.541483 46.970755 
C 126.932234 44.049842 118.850605 42.552 110.699997 42.552 
L 110.699998 65.8368 
C 115.997893 65.8368 121.250952 66.810397 126.196964 68.708991 
C 131.142976 70.607585 135.698243 73.399053 139.635347 76.944038 
C 143.572451 80.489022 146.824773 84.727533 149.229968 89.447991 
C 151.635164 94.168448 153.15253 99.290988 153.70631 104.55986 
C 154.260093 109.828733 153.84092 115.154787 152.469723 120.272161 
C 151.098526 125.389535 148.798514 130.211619 145.684489 134.497707 
C 142.570465 138.783796 138.695128 142.461354 134.251941 145.346796 
C 129.808753 148.232238 124.872893 150.276736 119.69077 151.378231 
C 114.508647 152.479726 109.167942 152.619581 103.935273 151.790805 
C 98.702604 150.962032 93.66651 149.178658 89.078397 146.529709 
C 84.490285 143.88076 80.427799 140.41107 77.093726 136.293832 
C 73.759653 132.176595 71.210415 127.481483 69.573274 122.442885 
C 67.936134 117.404288 67.238795 112.107459 67.516064 106.816825 
C 67.793336 101.52619 69.040522 96.331279 71.19537 91.491411 
C 73.350218 86.651543 76.37626 82.248622 80.122438 78.502443 
C 83.868616 74.756265 88.271538 71.73022 93.111406 69.575372 
z
" style="fill: #4db6e8"/>
   </g>
   <g id="patch_3">
    <path d="M 110.700001 42.552 
C 106.051229 42.552 101.415252 43.039262 96.868067 44.005795 
C 92.320882 44.972328 87.887489 46.412823 83.640625 48.30365 
L 93.111406 69.575372 
C 95.871868 68.346335 98.753573 67.410013 101.709244 66.781767 
C 104.664914 66.15352 107.678299 65.8368 110.700001 65.8368 
z
" style="fill: #e8f4fb"/>
   </g>
   <g id="matplotlib.axis_1"/>
   <g id="matplotlib.axis_2"/>
   <g id="text_1">
    <!-- 14 -->
    <g transform="translate(100.52 113.495) scale(0.16 -0.16)">
     <defs>
      <path id="DejaVuSans-31" d="M 794 531 
L 1825 531 
L 1825 4091 
L 703 3866 
L 703 4441 
L 1819 4666 
L 2450 4666 
L 2450 531 
L 3481 531 
L 3481 0 
L 794 0 
L 794 531 
z
" transform="scale(0.015625)"/>
      <path id="DejaVuSans-34" d="M 2419 4116 
L 825 1625 
L 2419 1625 
L 2419 4116 
z
M 2253 4666 
L 3047 4666 
L 3047 1625 
L 3713 1625 
L 3713 1100 
L 3047 1100 
L 3047 0 
L 2419 0 
L 2419 1100 
L 313 1100 
L 313 1709 
L 2253 4666 
z
" transform="scale(0.015625)"/>
     </defs>
     <use xlink:href="#DejaVuSans-31"/>
     <use xlink:href="#DejaVuSans-34" transform="translate(63.623047 0)"/>
    </g>
   </g>
  </g>
 </g>
</svg>
