<?xml version="1.0" encoding="utf-8" standalone="no"?>
<!DOCTYPE svg PUBLIC "-//W3C//DTD SVG 1.1//EN"
  "http://www.w3.org/Graphics/SVG/1.1/DTD/svg11.dtd">
<svg xmlns:xlink="http://www.w3.org/1999/xlink" width="216pt" height="216pt" viewBox="0 0 216 216" xmlns="http://www.w3.org/2000/svg" version="1.1">
 <metadata>
  <rdf:RDF xmlns:dc="http://purl.org/dc/elements/1.1/" xmlns:cc="http://creativecommons.org/ns#" xmlns:rdf="http://www.w3.org/1999/02/22-rdf-syntax-ns#">
   <cc:Work>
    <dc:type rdf:resource="http://purl.org/dc/dcmitype/StillImage"/>
    <dc:date>2025-12-11T06:24:12.251509</dc:date>
    <dc:format>image/svg+xml</dc:format>
    <dc:creator>
     <cc:Agent>
      <dc:title>Matplotlib v3.10.8, https://matplotlib.org/</dc:title>
     </cc:Agent>
    </dc:creator>
   </cc:Work>
  </rdf:RDF>
 </metadata>
 <defs>
  <style type="text/css">*{stroke-linejoin: round; stroke-linecap: butt}</style>
 </defs>
 <g id="figure_1">
  <g id="patch_1">
   <path d="M 0 216 
L 216 216 
L 216 0 
L 0 0 
L 0 216 
z
" style="fill: none"/>
  </g>
  <g id="axes_1">
   <g id="patch_2">
    <path d="M 99.456702 43.508945 
C 91.080133 44.945252 83.05585 47.973488 75.818863 52.429483 
C 68.581874 56.885477 62.265349 62.687229 57.211673 69.520253 
C 52.157997 76.353277 48.460171 84.091841 46.318657 92.316425 
C 44.177143 100.541009 43.631345 109.100267 44.710847 117.530246 
C 45.79035 125.960225 48.475295 134.105801 52.620126 141.525385 
C 56.764957 148.94497 62.293408 155.502047 68.90579 160.841171 
C 75.518173 166.180294 83.092814 170.203222 91.2191 172.691865 
C 99.345386 175.180508 107.873781 176.089088 116.34198 175.368333 
C 124.810179 174.647582 133.062354 172.310769 140.651165 168.484568 
C 148.239978 164.658367 155.025782 159.413187 160.640733 153.033362 
C 166.255685 146.653537 170.596461 139.256462 173.427752 131.243119 
C 176.259044 123.229777 177.528758 114.74761 177.168055 106.256452 
C 176.807353 97.765295 174.822879 89.421396 171.322208 81.677033 
C 167.821537 73.932668 162.86907 66.930354 156.733298 61.049694 
C 150.597526 55.169035 143.391356 50.518242 135.505399 47.349401 
C 127.619442 44.180561 119.198813 42.552 110.699997 42.552 
L 110.699998 65.8368 
C 116.224228 65.8368 121.697637 66.895365 126.823509 68.955111 
C 131.949381 71.014857 136.633392 74.037873 140.621644 77.860301 
C 144.609895 81.68273 147.828999 86.234234 150.104435 91.268071 
C 152.379872 96.301907 153.669779 101.725442 153.904236 107.244694 
C 154.138693 112.763947 153.313379 118.277355 151.473039 123.486027 
C 149.6327 128.6947 146.811195 133.502799 143.161477 137.649685 
C 139.511758 141.796571 135.100986 145.205938 130.168257 147.692969 
C 125.23553 150.18 119.871617 151.698928 114.367287 152.167416 
C 108.862958 152.635907 103.319501 152.045331 98.037415 150.427712 
C 92.755329 148.810094 87.831812 146.195191 83.533764 142.724761 
C 79.235715 139.254331 75.642222 134.992231 72.948082 130.169501 
C 70.253942 125.34677 68.508727 120.052146 67.807051 114.57266 
C 67.105374 109.093174 67.460143 103.529656 68.852127 98.183676 
C 70.244111 92.837696 72.647698 87.80763 75.932587 83.366164 
C 79.217477 78.924699 83.323218 75.15356 88.027261 72.257164 
C 92.731303 69.360767 97.947087 67.392414 103.391856 66.458814 
z
" style="fill: #4db6e8"/>
   </g>
   <g id="patch_3">
    <path d="M 110.700001 42.552 
C 108.816798 42.552 106.934445 42.631962 105.058026 42.791667 
C 103.181607 42.951373 101.312817 43.19068 99.456702 43.508945 
L 103.391856 66.458814 
C 104.598331 66.251942 105.813045 66.096392 107.032717 65.992584 
C 108.252389 65.888775 109.475919 65.8368 110.700001 65.8368 
z
" style="fill: #e8f4fb"/>
   </g>
   <g id="matplotlib.axis_1"/>
   <g id="matplotlib.axis_2"/>
   <g id="text_1">
    <!-- 36 -->
    <g transform="translate(100.52 113.495) scale(0.16 -0.16)">
     <defs>
      <path id="DejaVuSans-33" d="M 2597 2516 
Q 3050 2419 3304 2112 
Q 3559 1806 3559 1356 
Q 3559 666 3084 287 
Q 2609 -91 1734 -91 
Q 1441 -91 1130 -33 
Q 819 25 488 141 
L 488 750 
Q 750 597 1062 519 
Q 1375 441 1716 441 
Q 2309 441 2620 675 
Q 2931 909 2931 1356 
Q 2931 1769 2642 2001 
Q 2353 2234 1838 2234 
L 1294 2234 
L 1294 2753 
L 1863 2753 
Q 2328 2753 2575 2939 
Q 2822 3125 2822 3475 
Q 2822 3834 2567 4026 
Q 2313 4219 1838 4219 
Q 1578 4219 1281 4162 
Q 984 4106 628 3988 
L 628 4550 
Q 988 4650 1302 4700 
Q 1616 4750 1894 4750 
Q 2613 4750 3031 4423 
Q 3450 4097 3450 3541 
Q 3450 3153 3228 2886 
Q 3006 2619 2597 2516 
z
" transform="scale(0.015625)"/>
      <path id="DejaVuSans-36" d="M 2113 2584 
Q 1688 2584 1439 2293 
Q 1191 2003 1191 1497 
Q 1191 994 1439 701 
Q 1688 409 2113 409 
Q 2538 409 2786 701 
Q 3034 994 3034 1497 
Q 3034 2003 2786 2293 
Q 2538 2584 2113 2584 
z
M 3366 4563 
L 3366 3988 
Q 3128 4100 2886 4159 
Q 2644 4219 2406 4219 
Q 1781 4219 1451 3797 
Q 1122 3375 1075 2522 
Q 1259 2794 1537 2939 
Q 1816 3084 2150 3084 
Q 2853 3084 3261 2657 
Q 3669 2231 3669 1497 
Q 3669 778 3244 343 
Q 2819 -91 2113 -91 
Q 1303 -91 875 529 
Q 447 1150 447 2328 
Q 447 3434 972 4092 
Q 1497 4750 2381 4750 
Q 2619 4750 2861 4703 
Q 3103 4656 3366 4563 
z
" transform="scale(0.015625)"/>
     </defs>
     <use xlink:href="#DejaVuSans-33"/>
     <use xlink:href="#DejaVuSans-36" transform="translate(63.623047 0)"/>
    </g>
   </g>
  </g>
 </g>
</svg>
