<?xml version="1.0" encoding="UTF-8"?>
<svg width="238" height="194" viewBox="0 0 238 194">
<rect x="20" y="20" width="18" height="18" fill="#ebedf0" rx="3"/>
<rect x="20" y="42" width="18" height="18" fill="#ebedf0" rx="3"/>
<rect x="20" y="64" width="18" height="18" fill="#ebedf0" rx="3"/>
<rect x="20" y="86" width="18" height="18" fill="#ebedf0" rx="3"/>
<rect x="20" y="108" width="18" height="18" fill="#ebedf0" rx="3"/>
<rect x="20" y="130" width="18" height="18" fill="#ebedf0" rx="3"/>
<rect x="20" y="152" width="18" height="18" fill="#ebedf0" rx="3"/>
<rect x="42" y="20" width="18" height="18" fill="#ebedf0" rx="3"/>
<rect x="42" y="42" width="18" height="18" fill="#ebedf0" rx="3"/>
<rect x="42" y="64" width="18" height="18" fill="#ebedf0" rx="3"/>
<rect x="42" y="86" width="18" height="18" fill="#ebedf0" rx="3"/>
<rect x="42" y="108" width="18" height="18" fill="#ebedf0" rx="3"/>
<rect x="42" y="130" width="18" height="18" fill="#ebedf0" rx="3"/>
<rect x="42" y="152" width="18" height="18" fill="#ebedf0" rx="3"/>
<rect x="64" y="20" width="18" height="18" fill="#ebedf0" rx="3"/>
<rect x="64" y="42" width="18" height="18" fill="#ebedf0" rx="3"/>
<rect x="64" y="64" width="18" height="18" fill="#ebedf0" rx="3"/>
<rect x="64" y="86" width="18" height="18" fill="#ebedf0" rx="3"/>
<rect x="64" y="108" width="18" height="18" fill="#ebedf0" rx="3"/>
<rect x="64" y="130" width="18" height="18" fill="#ebedf0" rx="3"/>
<rect x="64" y="152" width="18" height="18" fill="#ebedf0" rx="3"/>
<rect x="86" y="20" width="18" height="18" fill="#ebedf0" rx="3"/>
<rect x="86" y="42" width="18" height="18" fill="#ebedf0" rx="3"/>
<rect x="86" y="64" width="18" height="18" fill="#ebedf0" rx="3"/>
<rect x="86" y="86" width="18" height="18" fill="#ebedf0" rx="3"/>
<rect x="86" y="108" width="18" height="18" fill="#ebedf0" rx="3"/>
<rect x="86" y="130" width="18" height="18" fill="#ebedf0" rx="3"/>
<rect x="86" y="152" width="18" height="18" fill="#ebedf0" rx="3"/>
<rect x="108" y="20" width="18" height="18" fill="#ebedf0" rx="3"/>
<rect x="108" y="42" width="18" height="18" fill="#ebedf0" rx="3"/>
<rect x="108" y="64" width="18" height="18" fill="#ebedf0" rx="3"/>
<rect x="108" y="86" width="18" height="18" fill="#ebedf0" rx="3"/>
<rect x="108" y="108" width="18" height="18" fill="#ebedf0" rx="3"/>
<rect x="108" y="130" width="18" height="18" fill="#ebedf0" rx="3"/>
<rect x="108" y="152" width="18" height="18" fill="#ebedf0" rx="3"/>
<rect x="130" y="20" width="18" height="18" fill="#ebedf0" rx="3"/>
<rect x="130" y="42" width="18" height="18" fill="#ebedf0" rx="3"/>
<rect x="130" y="64" width="18" height="18" fill="#ebedf0" rx="3"/>
<rect x="130" y="86" width="18" height="18" fill="#ebedf0" rx="3"/>
<rect x="130" y="108" width="18" height="18" fill="#7bc96f" rx="3"/>
<rect x="130" y="130" width="18" height="18" fill="#7bc96f" rx="3"/>
<rect x="130" y="152" width="18" height="18" fill="#ebedf0" rx="3"/>
<rect x="152" y="20" width="18" height="18" fill="#ebedf0" rx="3"/>
<rect x="152" y="42" width="18" height="18" fill="#ebedf0" rx="3"/>
<rect x="152" y="64" width="18" height="18" fill="#239a3b" rx="3"/>
<rect x="152" y="86" width="18" height="18" fill="#239a3b" rx="3"/>
<rect x="152" y="108" width="18" height="18" fill="#c6e48b" rx="3"/>
<rect x="152" y="130" width="18" height="18" fill="#ebedf0" rx="3"/>
<rect x="152" y="152" width="18" height="18" fill="#ebedf0" rx="3"/>
<rect x="174" y="20" width="18" height="18" fill="#7bc96f" rx="3"/>
<rect x="174" y="42" width="18" height="18" fill="#ebedf0" rx="3"/>
<rect x="174" y="64" width="18" height="18" fill="#7bc96f" rx="3"/>
<rect x="174" y="86" width="18" height="18" fill="#ebedf0" rx="3"/>
<rect x="174" y="108" width="18" height="18" fill="#7bc96f" rx="3"/>
<rect x="174" y="130" width="18" height="18" fill="#ebedf0" rx="3"/>
<rect x="174" y="152" width="18" height="18" fill="#ebedf0" rx="3"/>
<rect x="196" y="20" width="18" height="18" fill="#ebedf0" rx="3"/>
<rect x="196" y="42" width="18" height="18" fill="#7bc96f" rx="3"/>
<rect x="196" y="64" width="18" height="18" fill="#7bc96f" rx="3"/>
<rect x="196" y="86" width="18" height="18" fill="#7bc96f" rx="3"/>
</svg>