<svg width="700" height="120" xmlns="http://www.w3.org/2000/svg"><rect x="10" y="20" width="10" height="10" fill="#ebedf0"/><rect x="22" y="20" width="10" height="10" fill="#ebedf0"/><rect x="34" y="20" width="10" height="10" fill="#ebedf0"/><rect x="46" y="20" width="10" height="10" fill="#ebedf0"/><rect x="58" y="20" width="10" height="10" fill="#ebedf0"/><rect x="70" y="20" width="10" height="10" fill="#ebedf0"/><rect x="82" y="20" width="10" height="10" fill="#ebedf0"/><rect x="94" y="20" width="10" height="10" fill="#ebedf0"/><rect x="106" y="20" width="10" height="10" fill="#ebedf0"/><rect x="118" y="20" width="10" height="10" fill="#ebedf0"/><rect x="130" y="20" width="10" height="10" fill="#ebedf0"/><rect x="142" y="20" width="10" height="10" fill="#ebedf0"/><rect x="154" y="20" width="10" height="10" fill="#ebedf0"/><rect x="166" y="20" width="10" height="10" fill="#ebedf0"/><rect x="178" y="20" width="10" height="10" fill="#ebedf0"/><rect x="190" y="20" width="10" height="10" fill="#ebedf0"/><rect x="202" y="20" width="10" height="10" fill="#ebedf0"/><rect x="214" y="20" width="10" height="10" fill="#ebedf0"/><rect x="226" y="20" width="10" height="10" fill="#ebedf0"/><rect x="238" y="20" width="10" height="10" fill="#ebedf0"/><rect x="250" y="20" width="10" height="10" fill="#ebedf0"/><rect x="262" y="20" width="10" height="10" fill="#ebedf0"/><rect x="274" y="20" width="10" height="10" fill="#ebedf0"/><rect x="286" y="20" width="10" height="10" fill="#ebedf0"/><rect x="298" y="20" width="10" height="10" fill="#ebedf0"/><rect x="310" y="20" width="10" height="10" fill="#ebedf0"/><rect x="322" y="20" width="10" height="10" fill="#ebedf0"/><rect x="334" y="20" width="10" height="10" fill="#ebedf0"/><rect x="346" y="20" width="10" height="10" fill="#ebedf0"/><rect x="358" y="20" width="10" height="10" fill="#ebedf0"/><rect x="370" y="20" width="10" height="10" fill="#ebedf0"/><rect x="382" y="20" width="10" height="10" fill="#ebedf0"/><rect x="394" y="20" width="10" height="10" fill="#ebedf0"/><rect x="406" y="20" width="10" height="10" fill="#ebedf0"/><rect x="418" y="20" width="10" height="10" fill="#ebedf0"/><rect x="430" y="20" width="10" height="10" fill="#ebedf0"/><rect x="442" y="20" width="10" height="10" fill="#ebedf0"/><rect x="454" y="20" width="10" height="10" fill="#ebedf0"/><rect x="466" y="20" width="10" height="10" fill="#ebedf0"/><rect x="478" y="20" width="10" height="10" fill="#ebedf0"/><rect x="490" y="20" width="10" height="10" fill="#ebedf0"/><rect x="502" y="20" width="10" height="10" fill="#ebedf0"/><rect x="514" y="20" width="10" height="10" fill="#ebedf0"/><rect x="526" y="20" width="10" height="10" fill="#ebedf0"/><rect x="538" y="20" width="10" height="10" fill="#ebedf0"/><rect x="550" y="20" width="10" height="10" fill="#ebedf0"/><rect x="562" y="20" width="10" height="10" fill="#ebedf0"/><rect x="574" y="20" width="10" height="10" fill="#ebedf0"/><rect x="586" y="20" width="10" height="10" fill="#ebedf0"/><rect x="598" y="20" width="10" height="10" fill="#ebedf0"/><rect x="610" y="20" width="10" height="10" fill="#ebedf0"/><rect x="622" y="20" width="10" height="10" fill="#ebedf0"/><rect x="634" y="20" width="10" height="10" fill="#ebedf0"/><rect x="646" y="20" width="10" height="10" fill="#ebedf0"/><rect x="658" y="20" width="10" height="10" fill="#ebedf0"/><rect x="670" y="20" width="10" height="10" fill="#ebedf0"/><rect x="682" y="20" width="10" height="10" fill="#ebedf0"/><rect x="694" y="20" width="10" height="10" fill="#ebedf0"/><rect x="706" y="20" width="10" height="10" fill="#ebedf0"/><rect x="718" y="20" width="10" height="10" fill="#196127"/></svg>