<svg width="198" height="154"><rect x="0" y="0" width="18" height="18" fill="#ebedf0" rx="3"/><rect x="0" y="22" width="18" height="18" fill="#ebedf0" rx="3"/><rect x="0" y="44" width="18" height="18" fill="#ebedf0" rx="3"/><rect x="0" y="66" width="18" height="18" fill="#ebedf0" rx="3"/><rect x="0" y="88" width="18" height="18" fill="#ebedf0" rx="3"/><rect x="0" y="110" width="18" height="18" fill="#ebedf0" rx="3"/><rect x="0" y="132" width="18" height="18" fill="#ebedf0" rx="3"/><rect x="22" y="0" width="18" height="18" fill="#ebedf0" rx="3"/><rect x="22" y="22" width="18" height="18" fill="#ebedf0" rx="3"/><rect x="22" y="44" width="18" height="18" fill="#ebedf0" rx="3"/><rect x="22" y="66" width="18" height="18" fill="#ebedf0" rx="3"/><rect x="22" y="88" width="18" height="18" fill="#ebedf0" rx="3"/><rect x="22" y="110" width="18" height="18" fill="#ebedf0" rx="3"/><rect x="22" y="132" width="18" height="18" fill="#ebedf0" rx="3"/><rect x="44" y="0" width="18" height="18" fill="#ebedf0" rx="3"/><rect x="44" y="22" width="18" height="18" fill="#ebedf0" rx="3"/><rect x="44" y="44" width="18" height="18" fill="#ebedf0" rx="3"/><rect x="44" y="66" width="18" height="18" fill="#ebedf0" rx="3"/><rect x="44" y="88" width="18" height="18" fill="#ebedf0" rx="3"/><rect x="44" y="110" width="18" height="18" fill="#ebedf0" rx="3"/><rect x="44" y="132" width="18" height="18" fill="#ebedf0" rx="3"/><rect x="66" y="0" width="18" height="18" fill="#ebedf0" rx="3"/><rect x="66" y="22" width="18" height="18" fill="#ebedf0" rx="3"/><rect x="66" y="44" width="18" height="18" fill="#ebedf0" rx="3"/><rect x="66" y="66" width="18" height="18" fill="#ebedf0" rx="3"/><rect x="66" y="88" width="18" height="18" fill="#ebedf0" rx="3"/><rect x="66" y="110" width="18" height="18" fill="#ebedf0" rx="3"/><rect x="66" y="132" width="18" height="18" fill="#ebedf0" rx="3"/><rect x="88" y="0" width="18" height="18" fill="#ebedf0" rx="3"/><rect x="88" y="22" width="18" height="18" fill="#ebedf0" rx="3"/><rect x="88" y="44" width="18" height="18" fill="#ebedf0" rx="3"/><rect x="88" y="66" width="18" height="18" fill="#ebedf0" rx="3"/><rect x="88" y="88" width="18" height="18" fill="#ebedf0" rx="3"/><rect x="88" y="110" width="18" height="18" fill="#ebedf0" rx="3"/><rect x="88" y="132" width="18" height="18" fill="#ebedf0" rx="3"/><rect x="110" y="0" width="18" height="18" fill="#ebedf0" rx="3"/><rect x="110" y="22" width="18" height="18" fill="#ebedf0" rx="3"/><rect x="110" y="44" width="18" height="18" fill="#ebedf0" rx="3"/><rect x="110" y="66" width="18" height="18" fill="#ebedf0" rx="3"/><rect x="110" y="88" width="18" height="18" fill="#7bc96f" rx="3"/><rect x="110" y="110" width="18" height="18" fill="#7bc96f" rx="3"/><rect x="110" y="132" width="18" height="18" fill="#ebedf0" rx="3"/><rect x="132" y="0" width="18" height="18" fill="#ebedf0" rx="3"/><rect x="132" y="22" width="18" height="18" fill="#ebedf0" rx="3"/><rect x="132" y="44" width="18" height="18" fill="#239a3b" rx="3"/><rect x="132" y="66" width="18" height="18" fill="#239a3b" rx="3"/><rect x="132" y="88" width="18" height="18" fill="#c6e48b" rx="3"/><rect x="132" y="110" width="18" height="18" fill="#ebedf0" rx="3"/><rect x="132" y="132" width="18" height="18" fill="#ebedf0" rx="3"/><rect x="154" y="0" width="18" height="18" fill="#7bc96f" rx="3"/><rect x="154" y="22" width="18" height="18" fill="#ebedf0" rx="3"/><rect x="154" y="44" width="18" height="18" fill="#7bc96f" rx="3"/><rect x="154" y="66" width="18" height="18" fill="#ebedf0" rx="3"/><rect x="154" y="88" width="18" height="18" fill="#7bc96f" rx="3"/><rect x="154" y="110" width="18" height="18" fill="#ebedf0" rx="3"/><rect x="154" y="132" width="18" height="18" fill="#ebedf0" rx="3"/><rect x="176" y="0" width="18" height="18" fill="#ebedf0" rx="3"/><rect x="176" y="22" width="18" height="18" fill="#7bc96f" rx="3"/><rect x="176" y="44" width="18" height="18" fill="#7bc96f" rx="3"/><rect x="176" y="66" width="18" height="18" fill="#7bc96f" rx="3"/></svg>