<svg width="153" height="119">
<rect x="0" y="0" width="14" height="14" fill="#ebedf0" rx="3"/>
<rect x="0" y="17" width="14" height="14" fill="#ebedf0" rx="3"/>
<rect x="0" y="34" width="14" height="14" fill="#ebedf0" rx="3"/>
<rect x="0" y="51" width="14" height="14" fill="#ebedf0" rx="3"/>
<rect x="0" y="68" width="14" height="14" fill="#ebedf0" rx="3"/>
<rect x="0" y="85" width="14" height="14" fill="#ebedf0" rx="3"/>
<rect x="0" y="102" width="14" height="14" fill="#ebedf0" rx="3"/>
<rect x="17" y="0" width="14" height="14" fill="#ebedf0" rx="3"/>
<rect x="17" y="17" width="14" height="14" fill="#ebedf0" rx="3"/>
<rect x="17" y="34" width="14" height="14" fill="#ebedf0" rx="3"/>
<rect x="17" y="51" width="14" height="14" fill="#ebedf0" rx="3"/>
<rect x="17" y="68" width="14" height="14" fill="#ebedf0" rx="3"/>
<rect x="17" y="85" width="14" height="14" fill="#ebedf0" rx="3"/>
<rect x="17" y="102" width="14" height="14" fill="#ebedf0" rx="3"/>
<rect x="34" y="0" width="14" height="14" fill="#ebedf0" rx="3"/>
<rect x="34" y="17" width="14" height="14" fill="#ebedf0" rx="3"/>
<rect x="34" y="34" width="14" height="14" fill="#ebedf0" rx="3"/>
<rect x="34" y="51" width="14" height="14" fill="#ebedf0" rx="3"/>
<rect x="34" y="68" width="14" height="14" fill="#ebedf0" rx="3"/>
<rect x="34" y="85" width="14" height="14" fill="#ebedf0" rx="3"/>
<rect x="34" y="102" width="14" height="14" fill="#ebedf0" rx="3"/>
<rect x="51" y="0" width="14" height="14" fill="#ebedf0" rx="3"/>
<rect x="51" y="17" width="14" height="14" fill="#ebedf0" rx="3"/>
<rect x="51" y="34" width="14" height="14" fill="#ebedf0" rx="3"/>
<rect x="51" y="51" width="14" height="14" fill="#ebedf0" rx="3"/>
<rect x="51" y="68" width="14" height="14" fill="#ebedf0" rx="3"/>
<rect x="51" y="85" width="14" height="14" fill="#ebedf0" rx="3"/>
<rect x="51" y="102" width="14" height="14" fill="#ebedf0" rx="3"/>
<rect x="68" y="0" width="14" height="14" fill="#ebedf0" rx="3"/>
<rect x="68" y="17" width="14" height="14" fill="#ebedf0" rx="3"/>
<rect x="68" y="34" width="14" height="14" fill="#ebedf0" rx="3"/>
<rect x="68" y="51" width="14" height="14" fill="#ebedf0" rx="3"/>
<rect x="68" y="68" width="14" height="14" fill="#ebedf0" rx="3"/>
<rect x="68" y="85" width="14" height="14" fill="#ebedf0" rx="3"/>
<rect x="68" y="102" width="14" height="14" fill="#ebedf0" rx="3"/>
<rect x="85" y="0" width="14" height="14" fill="#ebedf0" rx="3"/>
<rect x="85" y="17" width="14" height="14" fill="#ebedf0" rx="3"/>
<rect x="85" y="34" width="14" height="14" fill="#ebedf0" rx="3"/>
<rect x="85" y="51" width="14" height="14" fill="#ebedf0" rx="3"/>
<rect x="85" y="68" width="14" height="14" fill="#7bc96f" rx="3"/>
<rect x="85" y="85" width="14" height="14" fill="#7bc96f" rx="3"/>
<rect x="85" y="102" width="14" height="14" fill="#ebedf0" rx="3"/>
<rect x="102" y="0" width="14" height="14" fill="#ebedf0" rx="3"/>
<rect x="102" y="17" width="14" height="14" fill="#ebedf0" rx="3"/>
<rect x="102" y="34" width="14" height="14" fill="#239a3b" rx="3"/>
<rect x="102" y="51" width="14" height="14" fill="#239a3b" rx="3"/>
<rect x="102" y="68" width="14" height="14" fill="#c6e48b" rx="3"/>
<rect x="102" y="85" width="14" height="14" fill="#ebedf0" rx="3"/>
<rect x="102" y="102" width="14" height="14" fill="#ebedf0" rx="3"/>
<rect x="119" y="0" width="14" height="14" fill="#7bc96f" rx="3"/>
<rect x="119" y="17" width="14" height="14" fill="#ebedf0" rx="3"/>
<rect x="119" y="34" width="14" height="14" fill="#7bc96f" rx="3"/>
<rect x="119" y="51" width="14" height="14" fill="#ebedf0" rx="3"/>
<rect x="119" y="68" width="14" height="14" fill="#7bc96f" rx="3"/>
<rect x="119" y="85" width="14" height="14" fill="#ebedf0" rx="3"/>
<rect x="119" y="102" width="14" height="14" fill="#ebedf0" rx="3"/>
<rect x="136" y="0" width="14" height="14" fill="#7bc96f" rx="3"/>
<rect x="136" y="17" width="14" height="14" fill="#c6e48b" rx="3"/>
<rect x="136" y="34" width="14" height="14" fill="#239a3b" rx="3"/>
<rect x="136" y="51" width="14" height="14" fill="#ebedf0" rx="3"/>
</svg>