<?xml version="1.0" encoding="utf-8" standalone="no"?>
<!DOCTYPE svg PUBLIC "-//W3C//DTD SVG 1.1//EN"
  "http://www.w3.org/Graphics/SVG/1.1/DTD/svg11.dtd">
<svg xmlns:xlink="http://www.w3.org/1999/xlink" width="864pt" height="144pt" viewBox="0 0 864 144" xmlns="http://www.w3.org/2000/svg" version="1.1">
 <metadata>
  <rdf:RDF xmlns:dc="http://purl.org/dc/elements/1.1/" xmlns:cc="http://creativecommons.org/ns#" xmlns:rdf="http://www.w3.org/1999/02/22-rdf-syntax-ns#">
   <cc:Work>
    <dc:type rdf:resource="http://purl.org/dc/dcmitype/StillImage"/>
    <dc:date>2025-12-11T06:24:12.321395</dc:date>
    <dc:format>image/svg+xml</dc:format>
    <dc:creator>
     <cc:Agent>
      <dc:title>Matplotlib v3.10.8, https://matplotlib.org/</dc:title>
     </cc:Agent>
    </dc:creator>
   </cc:Work>
  </rdf:RDF>
 </metadata>
 <defs>
  <style type="text/css">*{stroke-linejoin: round; stroke-linecap: butt}</style>
 </defs>
 <g id="figure_1">
  <g id="patch_1">
   <path d="M 0 144 
L 864 144 
L 864 0 
L 0 0 
L 0 144 
z
" style="fill: none"/>
  </g>
  <g id="axes_1">
   <g id="patch_2">
    <path d="M 108 128.16 
L 777.6 128.16 
L 777.6 17.28 
L 108 17.28 
L 108 128.16 
z
" style="fill: none"/>
   </g>
   <g id="patch_3">
    <path d="M 102.42 128.16 
L 113.58 128.16 
L 113.58 22.56 
L 102.42 22.56 
z
" clip-path="url(#p1b3e88490b)" style="fill: #f7fbff"/>
   </g>
   <g id="patch_4">
    <path d="M 113.58 128.16 
L 124.74 128.16 
L 124.74 22.56 
L 113.58 22.56 
z
" clip-path="url(#p1b3e88490b)" style="fill: #f7fbff"/>
   </g>
   <g id="patch_5">
    <path d="M 124.74 128.16 
L 135.9 128.16 
L 135.9 22.56 
L 124.74 22.56 
z
" clip-path="url(#p1b3e88490b)" style="fill: #f7fbff"/>
   </g>
   <g id="patch_6">
    <path d="M 135.9 128.16 
L 147.06 128.16 
L 147.06 22.56 
L 135.9 22.56 
z
" clip-path="url(#p1b3e88490b)" style="fill: #f7fbff"/>
   </g>
   <g id="patch_7">
    <path d="M 147.06 128.16 
L 158.22 128.16 
L 158.22 22.56 
L 147.06 22.56 
z
" clip-path="url(#p1b3e88490b)" style="fill: #f7fbff"/>
   </g>
   <g id="patch_8">
    <path d="M 158.22 128.16 
L 169.38 128.16 
L 169.38 22.56 
L 158.22 22.56 
z
" clip-path="url(#p1b3e88490b)" style="fill: #f7fbff"/>
   </g>
   <g id="patch_9">
    <path d="M 169.38 128.16 
L 180.54 128.16 
L 180.54 22.56 
L 169.38 22.56 
z
" clip-path="url(#p1b3e88490b)" style="fill: #f7fbff"/>
   </g>
   <g id="patch_10">
    <path d="M 180.54 128.16 
L 191.7 128.16 
L 191.7 22.56 
L 180.54 22.56 
z
" clip-path="url(#p1b3e88490b)" style="fill: #f7fbff"/>
   </g>
   <g id="patch_11">
    <path d="M 191.7 128.16 
L 202.86 128.16 
L 202.86 22.56 
L 191.7 22.56 
z
" clip-path="url(#p1b3e88490b)" style="fill: #f7fbff"/>
   </g>
   <g id="patch_12">
    <path d="M 202.86 128.16 
L 214.02 128.16 
L 214.02 22.56 
L 202.86 22.56 
z
" clip-path="url(#p1b3e88490b)" style="fill: #f7fbff"/>
   </g>
   <g id="patch_13">
    <path d="M 214.02 128.16 
L 225.18 128.16 
L 225.18 22.56 
L 214.02 22.56 
z
" clip-path="url(#p1b3e88490b)" style="fill: #f7fbff"/>
   </g>
   <g id="patch_14">
    <path d="M 225.18 128.16 
L 236.34 128.16 
L 236.34 22.56 
L 225.18 22.56 
z
" clip-path="url(#p1b3e88490b)" style="fill: #f7fbff"/>
   </g>
   <g id="patch_15">
    <path d="M 236.34 128.16 
L 247.5 128.16 
L 247.5 22.56 
L 236.34 22.56 
z
" clip-path="url(#p1b3e88490b)" style="fill: #f7fbff"/>
   </g>
   <g id="patch_16">
    <path d="M 247.5 128.16 
L 258.66 128.16 
L 258.66 22.56 
L 247.5 22.56 
z
" clip-path="url(#p1b3e88490b)" style="fill: #f7fbff"/>
   </g>
   <g id="patch_17">
    <path d="M 258.66 128.16 
L 269.82 128.16 
L 269.82 22.56 
L 258.66 22.56 
z
" clip-path="url(#p1b3e88490b)" style="fill: #f7fbff"/>
   </g>
   <g id="patch_18">
    <path d="M 269.82 128.16 
L 280.98 128.16 
L 280.98 22.56 
L 269.82 22.56 
z
" clip-path="url(#p1b3e88490b)" style="fill: #f7fbff"/>
   </g>
   <g id="patch_19">
    <path d="M 280.98 128.16 
L 292.14 128.16 
L 292.14 22.56 
L 280.98 22.56 
z
" clip-path="url(#p1b3e88490b)" style="fill: #f7fbff"/>
   </g>
   <g id="patch_20">
    <path d="M 292.14 128.16 
L 303.3 128.16 
L 303.3 22.56 
L 292.14 22.56 
z
" clip-path="url(#p1b3e88490b)" style="fill: #f7fbff"/>
   </g>
   <g id="patch_21">
    <path d="M 303.3 128.16 
L 314.46 128.16 
L 314.46 22.56 
L 303.3 22.56 
z
" clip-path="url(#p1b3e88490b)" style="fill: #f7fbff"/>
   </g>
   <g id="patch_22">
    <path d="M 314.46 128.16 
L 325.62 128.16 
L 325.62 22.56 
L 314.46 22.56 
z
" clip-path="url(#p1b3e88490b)" style="fill: #f7fbff"/>
   </g>
   <g id="patch_23">
    <path d="M 325.62 128.16 
L 336.78 128.16 
L 336.78 22.56 
L 325.62 22.56 
z
" clip-path="url(#p1b3e88490b)" style="fill: #f7fbff"/>
   </g>
   <g id="patch_24">
    <path d="M 336.78 128.16 
L 347.94 128.16 
L 347.94 22.56 
L 336.78 22.56 
z
" clip-path="url(#p1b3e88490b)" style="fill: #f7fbff"/>
   </g>
   <g id="patch_25">
    <path d="M 347.94 128.16 
L 359.1 128.16 
L 359.1 22.56 
L 347.94 22.56 
z
" clip-path="url(#p1b3e88490b)" style="fill: #f7fbff"/>
   </g>
   <g id="patch_26">
    <path d="M 359.1 128.16 
L 370.26 128.16 
L 370.26 22.56 
L 359.1 22.56 
z
" clip-path="url(#p1b3e88490b)" style="fill: #f7fbff"/>
   </g>
   <g id="patch_27">
    <path d="M 370.26 128.16 
L 381.42 128.16 
L 381.42 22.56 
L 370.26 22.56 
z
" clip-path="url(#p1b3e88490b)" style="fill: #f7fbff"/>
   </g>
   <g id="patch_28">
    <path d="M 381.42 128.16 
L 392.58 128.16 
L 392.58 22.56 
L 381.42 22.56 
z
" clip-path="url(#p1b3e88490b)" style="fill: #f7fbff"/>
   </g>
   <g id="patch_29">
    <path d="M 392.58 128.16 
L 403.74 128.16 
L 403.74 22.56 
L 392.58 22.56 
z
" clip-path="url(#p1b3e88490b)" style="fill: #f7fbff"/>
   </g>
   <g id="patch_30">
    <path d="M 403.74 128.16 
L 414.9 128.16 
L 414.9 22.56 
L 403.74 22.56 
z
" clip-path="url(#p1b3e88490b)" style="fill: #f7fbff"/>
   </g>
   <g id="patch_31">
    <path d="M 414.9 128.16 
L 426.06 128.16 
L 426.06 22.56 
L 414.9 22.56 
z
" clip-path="url(#p1b3e88490b)" style="fill: #f7fbff"/>
   </g>
   <g id="patch_32">
    <path d="M 426.06 128.16 
L 437.22 128.16 
L 437.22 22.56 
L 426.06 22.56 
z
" clip-path="url(#p1b3e88490b)" style="fill: #f7fbff"/>
   </g>
   <g id="patch_33">
    <path d="M 437.22 128.16 
L 448.38 128.16 
L 448.38 22.56 
L 437.22 22.56 
z
" clip-path="url(#p1b3e88490b)" style="fill: #f7fbff"/>
   </g>
   <g id="patch_34">
    <path d="M 448.38 128.16 
L 459.54 128.16 
L 459.54 22.56 
L 448.38 22.56 
z
" clip-path="url(#p1b3e88490b)" style="fill: #f7fbff"/>
   </g>
   <g id="patch_35">
    <path d="M 459.54 128.16 
L 470.7 128.16 
L 470.7 22.56 
L 459.54 22.56 
z
" clip-path="url(#p1b3e88490b)" style="fill: #f7fbff"/>
   </g>
   <g id="patch_36">
    <path d="M 470.7 128.16 
L 481.86 128.16 
L 481.86 22.56 
L 470.7 22.56 
z
" clip-path="url(#p1b3e88490b)" style="fill: #f7fbff"/>
   </g>
   <g id="patch_37">
    <path d="M 481.86 128.16 
L 493.02 128.16 
L 493.02 22.56 
L 481.86 22.56 
z
" clip-path="url(#p1b3e88490b)" style="fill: #f7fbff"/>
   </g>
   <g id="patch_38">
    <path d="M 493.02 128.16 
L 504.18 128.16 
L 504.18 22.56 
L 493.02 22.56 
z
" clip-path="url(#p1b3e88490b)" style="fill: #f7fbff"/>
   </g>
   <g id="patch_39">
    <path d="M 504.18 128.16 
L 515.34 128.16 
L 515.34 22.56 
L 504.18 22.56 
z
" clip-path="url(#p1b3e88490b)" style="fill: #f7fbff"/>
   </g>
   <g id="patch_40">
    <path d="M 515.34 128.16 
L 526.5 128.16 
L 526.5 22.56 
L 515.34 22.56 
z
" clip-path="url(#p1b3e88490b)" style="fill: #f7fbff"/>
   </g>
   <g id="patch_41">
    <path d="M 526.5 128.16 
L 537.66 128.16 
L 537.66 22.56 
L 526.5 22.56 
z
" clip-path="url(#p1b3e88490b)" style="fill: #f7fbff"/>
   </g>
   <g id="patch_42">
    <path d="M 537.66 128.16 
L 548.82 128.16 
L 548.82 22.56 
L 537.66 22.56 
z
" clip-path="url(#p1b3e88490b)" style="fill: #f7fbff"/>
   </g>
   <g id="patch_43">
    <path d="M 548.82 128.16 
L 559.98 128.16 
L 559.98 22.56 
L 548.82 22.56 
z
" clip-path="url(#p1b3e88490b)" style="fill: #f7fbff"/>
   </g>
   <g id="patch_44">
    <path d="M 559.98 128.16 
L 571.14 128.16 
L 571.14 22.56 
L 559.98 22.56 
z
" clip-path="url(#p1b3e88490b)" style="fill: #f7fbff"/>
   </g>
   <g id="patch_45">
    <path d="M 571.14 128.16 
L 582.3 128.16 
L 582.3 22.56 
L 571.14 22.56 
z
" clip-path="url(#p1b3e88490b)" style="fill: #f7fbff"/>
   </g>
   <g id="patch_46">
    <path d="M 582.3 128.16 
L 593.46 128.16 
L 593.46 22.56 
L 582.3 22.56 
z
" clip-path="url(#p1b3e88490b)" style="fill: #f7fbff"/>
   </g>
   <g id="patch_47">
    <path d="M 593.46 128.16 
L 604.62 128.16 
L 604.62 22.56 
L 593.46 22.56 
z
" clip-path="url(#p1b3e88490b)" style="fill: #f7fbff"/>
   </g>
   <g id="patch_48">
    <path d="M 604.62 128.16 
L 615.78 128.16 
L 615.78 22.56 
L 604.62 22.56 
z
" clip-path="url(#p1b3e88490b)" style="fill: #f7fbff"/>
   </g>
   <g id="patch_49">
    <path d="M 615.78 128.16 
L 626.94 128.16 
L 626.94 22.56 
L 615.78 22.56 
z
" clip-path="url(#p1b3e88490b)" style="fill: #f7fbff"/>
   </g>
   <g id="patch_50">
    <path d="M 626.94 128.16 
L 638.1 128.16 
L 638.1 22.56 
L 626.94 22.56 
z
" clip-path="url(#p1b3e88490b)" style="fill: #f7fbff"/>
   </g>
   <g id="patch_51">
    <path d="M 638.1 128.16 
L 649.26 128.16 
L 649.26 22.56 
L 638.1 22.56 
z
" clip-path="url(#p1b3e88490b)" style="fill: #f7fbff"/>
   </g>
   <g id="patch_52">
    <path d="M 649.26 128.16 
L 660.42 128.16 
L 660.42 22.56 
L 649.26 22.56 
z
" clip-path="url(#p1b3e88490b)" style="fill: #f7fbff"/>
   </g>
   <g id="patch_53">
    <path d="M 660.42 128.16 
L 671.58 128.16 
L 671.58 22.56 
L 660.42 22.56 
z
" clip-path="url(#p1b3e88490b)" style="fill: #f7fbff"/>
   </g>
   <g id="patch_54">
    <path d="M 671.58 128.16 
L 682.74 128.16 
L 682.74 22.56 
L 671.58 22.56 
z
" clip-path="url(#p1b3e88490b)" style="fill: #f7fbff"/>
   </g>
   <g id="patch_55">
    <path d="M 682.74 128.16 
L 693.9 128.16 
L 693.9 22.56 
L 682.74 22.56 
z
" clip-path="url(#p1b3e88490b)" style="fill: #f7fbff"/>
   </g>
   <g id="patch_56">
    <path d="M 693.9 128.16 
L 705.06 128.16 
L 705.06 22.56 
L 693.9 22.56 
z
" clip-path="url(#p1b3e88490b)" style="fill: #f7fbff"/>
   </g>
   <g id="patch_57">
    <path d="M 705.06 128.16 
L 716.22 128.16 
L 716.22 22.56 
L 705.06 22.56 
z
" clip-path="url(#p1b3e88490b)" style="fill: #f7fbff"/>
   </g>
   <g id="patch_58">
    <path d="M 716.22 128.16 
L 727.38 128.16 
L 727.38 22.56 
L 716.22 22.56 
z
" clip-path="url(#p1b3e88490b)" style="fill: #f7fbff"/>
   </g>
   <g id="patch_59">
    <path d="M 727.38 128.16 
L 738.54 128.16 
L 738.54 22.56 
L 727.38 22.56 
z
" clip-path="url(#p1b3e88490b)" style="fill: #f7fbff"/>
   </g>
   <g id="patch_60">
    <path d="M 738.54 128.16 
L 749.7 128.16 
L 749.7 22.56 
L 738.54 22.56 
z
" clip-path="url(#p1b3e88490b)" style="fill: #f7fbff"/>
   </g>
   <g id="patch_61">
    <path d="M 749.7 128.16 
L 760.86 128.16 
L 760.86 22.56 
L 749.7 22.56 
z
" clip-path="url(#p1b3e88490b)" style="fill: #f7fbff"/>
   </g>
   <g id="patch_62">
    <path d="M 760.86 128.16 
L 772.02 128.16 
L 772.02 22.56 
L 760.86 22.56 
z
" clip-path="url(#p1b3e88490b)" style="fill: #f7fbff"/>
   </g>
   <g id="matplotlib.axis_1"/>
   <g id="matplotlib.axis_2"/>
   <g id="patch_63">
    <path d="M 108 128.16 
L 108 17.28 
" style="fill: none; stroke: #000000; stroke-width: 0.8; stroke-linejoin: miter; stroke-linecap: square"/>
   </g>
   <g id="patch_64">
    <path d="M 777.6 128.16 
L 777.6 17.28 
" style="fill: none; stroke: #000000; stroke-width: 0.8; stroke-linejoin: miter; stroke-linecap: square"/>
   </g>
   <g id="patch_65">
    <path d="M 108 128.16 
L 777.6 128.16 
" style="fill: none; stroke: #000000; stroke-width: 0.8; stroke-linejoin: miter; stroke-linecap: square"/>
   </g>
   <g id="patch_66">
    <path d="M 108 17.28 
L 777.6 17.28 
" style="fill: none; stroke: #000000; stroke-width: 0.8; stroke-linejoin: miter; stroke-linecap: square"/>
   </g>
  </g>
 </g>
 <defs>
  <clipPath id="p1b3e88490b">
   <rect x="108" y="17.28" width="669.6" height="110.88"/>
  </clipPath>
 </defs>
</svg>
