<svg width="180" height="186" xmlns="http://www.w3.org/2000/svg">
<rect x="0" y="0" width="14" height="14" rx="3" fill="#ebf2ff"><title>2025-10-21 — 0 solved</title></rect>
<rect x="0" y="18" width="14" height="14" rx="3" fill="#ebf2ff"><title>2025-10-22 — 0 solved</title></rect>
<rect x="0" y="36" width="14" height="14" rx="3" fill="#ebf2ff"><title>2025-10-23 — 0 solved</title></rect>
<rect x="0" y="54" width="14" height="14" rx="3" fill="#ebf2ff"><title>2025-10-24 — 0 solved</title></rect>
<rect x="0" y="72" width="14" height="14" rx="3" fill="#ebf2ff"><title>2025-10-25 — 0 solved</title></rect>
<rect x="0" y="90" width="14" height="14" rx="3" fill="#ebf2ff"><title>2025-10-26 — 0 solved</title></rect>
<rect x="0" y="108" width="14" height="14" rx="3" fill="#ebf2ff"><title>2025-10-27 — 0 solved</title></rect>
<rect x="18" y="0" width="14" height="14" rx="3" fill="#ebf2ff"><title>2025-10-28 — 0 solved</title></rect>
<rect x="18" y="18" width="14" height="14" rx="3" fill="#ebf2ff"><title>2025-10-29 — 0 solved</title></rect>
<rect x="18" y="36" width="14" height="14" rx="3" fill="#ebf2ff"><title>2025-10-30 — 0 solved</title></rect>
<rect x="18" y="54" width="14" height="14" rx="3" fill="#ebf2ff"><title>2025-10-31 — 0 solved</title></rect>
<rect x="18" y="72" width="14" height="14" rx="3" fill="#ebf2ff"><title>2025-11-01 — 0 solved</title></rect>
<rect x="18" y="90" width="14" height="14" rx="3" fill="#ebf2ff"><title>2025-11-02 — 0 solved</title></rect>
<rect x="18" y="108" width="14" height="14" rx="3" fill="#ebf2ff"><title>2025-11-03 — 0 solved</title></rect>
<rect x="36" y="0" width="14" height="14" rx="3" fill="#ebf2ff"><title>2025-11-04 — 0 solved</title></rect>
<rect x="36" y="18" width="14" height="14" rx="3" fill="#ebf2ff"><title>2025-11-05 — 0 solved</title></rect>
<rect x="36" y="36" width="14" height="14" rx="3" fill="#ebf2ff"><title>2025-11-06 — 0 solved</title></rect>
<rect x="36" y="54" width="14" height="14" rx="3" fill="#ebf2ff"><title>2025-11-07 — 0 solved</title></rect>
<rect x="36" y="72" width="14" height="14" rx="3" fill="#ebf2ff"><title>2025-11-08 — 0 solved</title></rect>
<rect x="36" y="90" width="14" height="14" rx="3" fill="#ebf2ff"><title>2025-11-09 — 0 solved</title></rect>
<rect x="36" y="108" width="14" height="14" rx="3" fill="#ebf2ff"><title>2025-11-10 — 0 solved</title></rect>
<rect x="54" y="0" width="14" height="14" rx="3" fill="#ebf2ff"><title>2025-11-11 — 0 solved</title></rect>
<rect x="54" y="18" width="14" height="14" rx="3" fill="#ebf2ff"><title>2025-11-12 — 0 solved</title></rect>
<rect x="54" y="36" width="14" height="14" rx="3" fill="#ebf2ff"><title>2025-11-13 — 0 solved</title></rect>
<rect x="54" y="54" width="14" height="14" rx="3" fill="#ebf2ff"><title>2025-11-14 — 0 solved</title></rect>
<rect x="54" y="72" width="14" height="14" rx="3" fill="#ebf2ff"><title>2025-11-15 — 0 solved</title></rect>
<rect x="54" y="90" width="14" height="14" rx="3" fill="#ebf2ff"><title>2025-11-16 — 0 solved</title></rect>
<rect x="54" y="108" width="14" height="14" rx="3" fill="#ebf2ff"><title>2025-11-17 — 0 solved</title></rect>
<rect x="72" y="0" width="14" height="14" rx="3" fill="#ebf2ff"><title>2025-11-18 — 0 solved</title></rect>
<rect x="72" y="18" width="14" height="14" rx="3" fill="#ebf2ff"><title>2025-11-19 — 0 solved</title></rect>
<rect x="72" y="36" width="14" height="14" rx="3" fill="#ebf2ff"><title>2025-11-20 — 0 solved</title></rect>
<rect x="72" y="54" width="14" height="14" rx="3" fill="#7bb0ff"><title>2025-11-21 — 3 solved</title></rect>
<rect x="72" y="72" width="14" height="14" rx="3" fill="#7bb0ff"><title>2025-11-22 — 3 solved</title></rect>
<rect x="72" y="90" width="14" height="14" rx="3" fill="#ebf2ff"><title>2025-11-23 — 0 solved</title></rect>
<rect x="72" y="108" width="14" height="14" rx="3" fill="#ebf2ff"><title>2025-11-24 — 0 solved</title></rect>
<rect x="90" y="0" width="14" height="14" rx="3" fill="#ebf2ff"><title>2025-11-25 — 0 solved</title></rect>
<rect x="90" y="18" width="14" height="14" rx="3" fill="#4a90ff"><title>2025-11-26 — 5 solved</title></rect>
<rect x="90" y="36" width="14" height="14" rx="3" fill="#4a90ff"><title>2025-11-27 — 5 solved</title></rect>
<rect x="90" y="54" width="14" height="14" rx="3" fill="#7bb0ff"><title>2025-11-28 — 1 solved</title></rect>
<rect x="90" y="72" width="14" height="14" rx="3" fill="#ebf2ff"><title>2025-11-29 — 0 solved</title></rect>
<rect x="90" y="90" width="14" height="14" rx="3" fill="#ebf2ff"><title>2025-11-30 — 0 solved</title></rect>
<rect x="90" y="108" width="14" height="14" rx="3" fill="#4a90ff"><title>2025-12-01 — 4 solved</title></rect>
<rect x="108" y="0" width="14" height="14" rx="3" fill="#ebf2ff"><title>2025-12-02 — 0 solved</title></rect>
<rect x="108" y="18" width="14" height="14" rx="3" fill="#7bb0ff"><title>2025-12-03 — 3 solved</title></rect>
<rect x="108" y="36" width="14" height="14" rx="3" fill="#ebf2ff"><title>2025-12-04 — 0 solved</title></rect>
<rect x="108" y="54" width="14" height="14" rx="3" fill="#7bb0ff"><title>2025-12-05 — 2 solved</title></rect>
<rect x="108" y="72" width="14" height="14" rx="3" fill="#ebf2ff"><title>2025-12-06 — 0 solved</title></rect>
<rect x="108" y="90" width="14" height="14" rx="3" fill="#ebf2ff"><title>2025-12-07 — 0 solved</title></rect>
<rect x="108" y="108" width="14" height="14" rx="3" fill="#ebf2ff"><title>2025-12-08 — 0 solved</title></rect>
<rect x="126" y="0" width="14" height="14" rx="3" fill="#7bb0ff"><title>2025-12-09 — 3 solved</title></rect>
<rect x="126" y="18" width="14" height="14" rx="3" fill="#4a90ff"><title>2025-12-10 — 4 solved</title></rect>
<rect x="126" y="36" width="14" height="14" rx="3" fill="#4a90ff"><title>2025-12-11 — 4 solved</title></rect>
<rect x="126" y="54" width="14" height="14" rx="3" fill="#4a90ff"><title>2025-12-12 — 5 solved</title></rect>
<rect x="126" y="72" width="14" height="14" rx="3" fill="#ebf2ff"><title>2025-12-13 — 0 solved</title></rect>
<rect x="126" y="90" width="14" height="14" rx="3" fill="#ebf2ff"><title>2025-12-14 — 0 solved</title></rect>
<rect x="126" y="108" width="14" height="14" rx="3" fill="#7bb0ff"><title>2025-12-15 — 2 solved</title></rect>
<rect x="144" y="0" width="14" height="14" rx="3" fill="#ebf2ff"><title>2025-12-16 — 0 solved</title></rect>
<rect x="144" y="18" width="14" height="14" rx="3" fill="#7bb0ff"><title>2025-12-17 — 2 solved</title></rect>
<rect x="144" y="36" width="14" height="14" rx="3" fill="#4a90ff"><title>2025-12-18 — 5 solved</title></rect>
<rect x="144" y="54" width="14" height="14" rx="3" fill="#ebf2ff"><title>2025-12-19 — 0 solved</title></rect>
<rect x="0" y="146" width="12" height="12" fill="#ebf2ff" />
<text x="18" y="156" font-size="10">0</text>
<rect x="40" y="146" width="12" height="12" fill="#7bb0ff" />
<text x="58" y="156" font-size="10">1–3</text>
<rect x="80" y="146" width="12" height="12" fill="#4a90ff" />
<text x="98" y="156" font-size="10">4–5</text>
<rect x="120" y="146" width="12" height="12" fill="#0066ff" />
<text x="138" y="156" font-size="10">6+</text>
</svg>