<svg viewBox="0 0 260 211" width="260" height="211" xmlns="http://www.w3.org/2000/svg">
<rect x="0" y="25" width="14" height="14" rx="3" fill="#ebf2ff"><title>2025-10-13 — 0 solved</title></rect>
<rect x="0" y="43" width="14" height="14" rx="3" fill="#ebf2ff"><title>2025-10-14 — 0 solved</title></rect>
<rect x="0" y="61" width="14" height="14" rx="3" fill="#ebf2ff"><title>2025-10-15 — 0 solved</title></rect>
<rect x="0" y="79" width="14" height="14" rx="3" fill="#ebf2ff"><title>2025-10-16 — 0 solved</title></rect>
<rect x="0" y="97" width="14" height="14" rx="3" fill="#ebf2ff"><title>2025-10-17 — 0 solved</title></rect>
<rect x="0" y="115" width="14" height="14" rx="3" fill="#ebf2ff"><title>2025-10-18 — 0 solved</title></rect>
<rect x="0" y="133" width="14" height="14" rx="3" fill="#ebf2ff"><title>2025-10-19 — 0 solved</title></rect>
<rect x="18" y="25" width="14" height="14" rx="3" fill="#ebf2ff"><title>2025-10-20 — 0 solved</title></rect>
<rect x="18" y="43" width="14" height="14" rx="3" fill="#ebf2ff"><title>2025-10-21 — 0 solved</title></rect>
<rect x="18" y="61" width="14" height="14" rx="3" fill="#ebf2ff"><title>2025-10-22 — 0 solved</title></rect>
<rect x="18" y="79" width="14" height="14" rx="3" fill="#ebf2ff"><title>2025-10-23 — 0 solved</title></rect>
<rect x="18" y="97" width="14" height="14" rx="3" fill="#ebf2ff"><title>2025-10-24 — 0 solved</title></rect>
<rect x="18" y="115" width="14" height="14" rx="3" fill="#ebf2ff"><title>2025-10-25 — 0 solved</title></rect>
<rect x="18" y="133" width="14" height="14" rx="3" fill="#ebf2ff"><title>2025-10-26 — 0 solved</title></rect>
<rect x="36" y="25" width="14" height="14" rx="3" fill="#ebf2ff"><title>2025-10-27 — 0 solved</title></rect>
<rect x="36" y="43" width="14" height="14" rx="3" fill="#ebf2ff"><title>2025-10-28 — 0 solved</title></rect>
<rect x="36" y="61" width="14" height="14" rx="3" fill="#ebf2ff"><title>2025-10-29 — 0 solved</title></rect>
<rect x="36" y="79" width="14" height="14" rx="3" fill="#ebf2ff"><title>2025-10-30 — 0 solved</title></rect>
<rect x="36" y="97" width="14" height="14" rx="3" fill="#ebf2ff"><title>2025-10-31 — 0 solved</title></rect>
<rect x="36" y="115" width="14" height="14" rx="3" fill="#ebf2ff"><title>2025-11-01 — 0 solved</title></rect>
<rect x="36" y="133" width="14" height="14" rx="3" fill="#ebf2ff"><title>2025-11-02 — 0 solved</title></rect>
<rect x="54" y="25" width="14" height="14" rx="3" fill="#ebf2ff"><title>2025-11-03 — 0 solved</title></rect>
<rect x="54" y="43" width="14" height="14" rx="3" fill="#ebf2ff"><title>2025-11-04 — 0 solved</title></rect>
<rect x="54" y="61" width="14" height="14" rx="3" fill="#ebf2ff"><title>2025-11-05 — 0 solved</title></rect>
<rect x="54" y="79" width="14" height="14" rx="3" fill="#ebf2ff"><title>2025-11-06 — 0 solved</title></rect>
<rect x="54" y="97" width="14" height="14" rx="3" fill="#ebf2ff"><title>2025-11-07 — 0 solved</title></rect>
<rect x="54" y="115" width="14" height="14" rx="3" fill="#ebf2ff"><title>2025-11-08 — 0 solved</title></rect>
<rect x="54" y="133" width="14" height="14" rx="3" fill="#ebf2ff"><title>2025-11-09 — 0 solved</title></rect>
<rect x="72" y="25" width="14" height="14" rx="3" fill="#ebf2ff"><title>2025-11-10 — 0 solved</title></rect>
<rect x="72" y="43" width="14" height="14" rx="3" fill="#ebf2ff"><title>2025-11-11 — 0 solved</title></rect>
<rect x="72" y="61" width="14" height="14" rx="3" fill="#ebf2ff"><title>2025-11-12 — 0 solved</title></rect>
<rect x="72" y="79" width="14" height="14" rx="3" fill="#ebf2ff"><title>2025-11-13 — 0 solved</title></rect>
<rect x="72" y="97" width="14" height="14" rx="3" fill="#ebf2ff"><title>2025-11-14 — 0 solved</title></rect>
<rect x="72" y="115" width="14" height="14" rx="3" fill="#ebf2ff"><title>2025-11-15 — 0 solved</title></rect>
<rect x="72" y="133" width="14" height="14" rx="3" fill="#ebf2ff"><title>2025-11-16 — 0 solved</title></rect>
<rect x="90" y="25" width="14" height="14" rx="3" fill="#ebf2ff"><title>2025-11-17 — 0 solved</title></rect>
<rect x="90" y="43" width="14" height="14" rx="3" fill="#ebf2ff"><title>2025-11-18 — 0 solved</title></rect>
<rect x="90" y="61" width="14" height="14" rx="3" fill="#ebf2ff"><title>2025-11-19 — 0 solved</title></rect>
<rect x="90" y="79" width="14" height="14" rx="3" fill="#ebf2ff"><title>2025-11-20 — 0 solved</title></rect>
<rect x="90" y="97" width="14" height="14" rx="3" fill="#4a90ff"><title>2025-11-21 — 3 solved</title></rect>
<rect x="90" y="115" width="14" height="14" rx="3" fill="#4a90ff"><title>2025-11-22 — 3 solved</title></rect>
<rect x="90" y="133" width="14" height="14" rx="3" fill="#ebf2ff"><title>2025-11-23 — 0 solved</title></rect>
<rect x="108" y="25" width="14" height="14" rx="3" fill="#ebf2ff"><title>2025-11-24 — 0 solved</title></rect>
<rect x="108" y="43" width="14" height="14" rx="3" fill="#ebf2ff"><title>2025-11-25 — 0 solved</title></rect>
<rect x="108" y="61" width="14" height="14" rx="3" fill="#4a90ff"><title>2025-11-26 — 5 solved</title></rect>
<rect x="108" y="79" width="14" height="14" rx="3" fill="#4a90ff"><title>2025-11-27 — 5 solved</title></rect>
<rect x="108" y="97" width="14" height="14" rx="3" fill="#7bb0ff"><title>2025-11-28 — 1 solved</title></rect>
<rect x="108" y="115" width="14" height="14" rx="3" fill="#ebf2ff"><title>2025-11-29 — 0 solved</title></rect>
<rect x="108" y="133" width="14" height="14" rx="3" fill="#ebf2ff"><title>2025-11-30 — 0 solved</title></rect>
<rect x="126" y="25" width="14" height="14" rx="3" fill="#4a90ff"><title>2025-12-01 — 4 solved</title></rect>
<rect x="126" y="43" width="14" height="14" rx="3" fill="#ebf2ff"><title>2025-12-02 — 0 solved</title></rect>
<rect x="126" y="61" width="14" height="14" rx="3" fill="#4a90ff"><title>2025-12-03 — 3 solved</title></rect>
<rect x="126" y="79" width="14" height="14" rx="3" fill="#ebf2ff"><title>2025-12-04 — 0 solved</title></rect>
<rect x="126" y="97" width="14" height="14" rx="3" fill="#7bb0ff"><title>2025-12-05 — 2 solved</title></rect>
<rect x="126" y="115" width="14" height="14" rx="3" fill="#ebf2ff"><title>2025-12-06 — 0 solved</title></rect>
<rect x="126" y="133" width="14" height="14" rx="3" fill="#ebf2ff"><title>2025-12-07 — 0 solved</title></rect>
<rect x="144" y="25" width="14" height="14" rx="3" fill="#ebf2ff"><title>2025-12-08 — 0 solved</title></rect>
<rect x="144" y="43" width="14" height="14" rx="3" fill="#4a90ff"><title>2025-12-09 — 3 solved</title></rect>
<rect x="144" y="61" width="14" height="14" rx="3" fill="#7bb0ff"><title>2025-12-10 — 2 solved</title></rect>
<rect x="144" y="79" width="14" height="14" rx="3" fill="#4a90ff"><title>2025-12-11 — 4 solved</title></rect>
<rect x="10" y="166" width="14" height="14" fill="#ebf2ff" />
<text x="30" y="178" font-size="13">0</text>
<rect x="80" y="166" width="14" height="14" fill="#7bb0ff" />
<text x="100" y="178" font-size="13">1–2</text>
<rect x="150" y="166" width="14" height="14" fill="#4a90ff" />
<text x="170" y="178" font-size="13">3–5</text>
<rect x="220" y="166" width="14" height="14" fill="#0066ff" />
<text x="240" y="178" font-size="13">5+</text>
</svg>