<svg width="360" height="206" viewBox="0 0 360 206" xmlns="http://www.w3.org/2000/svg">
<rect x="45" y="35" width="14" height="14" rx="3" fill="#ebf2ff"><title>2025-10-13 — 0 solved</title></rect>
<rect x="45" y="53" width="14" height="14" rx="3" fill="#ebf2ff"><title>2025-10-14 — 0 solved</title></rect>
<rect x="45" y="71" width="14" height="14" rx="3" fill="#ebf2ff"><title>2025-10-15 — 0 solved</title></rect>
<rect x="45" y="89" width="14" height="14" rx="3" fill="#ebf2ff"><title>2025-10-16 — 0 solved</title></rect>
<rect x="45" y="107" width="14" height="14" rx="3" fill="#ebf2ff"><title>2025-10-17 — 0 solved</title></rect>
<rect x="45" y="125" width="14" height="14" rx="3" fill="#ebf2ff"><title>2025-10-18 — 0 solved</title></rect>
<rect x="45" y="143" width="14" height="14" rx="3" fill="#ebf2ff"><title>2025-10-19 — 0 solved</title></rect>
<rect x="63" y="35" width="14" height="14" rx="3" fill="#ebf2ff"><title>2025-10-20 — 0 solved</title></rect>
<rect x="63" y="53" width="14" height="14" rx="3" fill="#ebf2ff"><title>2025-10-21 — 0 solved</title></rect>
<rect x="63" y="71" width="14" height="14" rx="3" fill="#ebf2ff"><title>2025-10-22 — 0 solved</title></rect>
<rect x="63" y="89" width="14" height="14" rx="3" fill="#ebf2ff"><title>2025-10-23 — 0 solved</title></rect>
<rect x="63" y="107" width="14" height="14" rx="3" fill="#ebf2ff"><title>2025-10-24 — 0 solved</title></rect>
<rect x="63" y="125" width="14" height="14" rx="3" fill="#ebf2ff"><title>2025-10-25 — 0 solved</title></rect>
<rect x="63" y="143" width="14" height="14" rx="3" fill="#ebf2ff"><title>2025-10-26 — 0 solved</title></rect>
<rect x="81" y="35" width="14" height="14" rx="3" fill="#ebf2ff"><title>2025-10-27 — 0 solved</title></rect>
<rect x="81" y="53" width="14" height="14" rx="3" fill="#ebf2ff"><title>2025-10-28 — 0 solved</title></rect>
<rect x="81" y="71" width="14" height="14" rx="3" fill="#ebf2ff"><title>2025-10-29 — 0 solved</title></rect>
<rect x="81" y="89" width="14" height="14" rx="3" fill="#ebf2ff"><title>2025-10-30 — 0 solved</title></rect>
<rect x="81" y="107" width="14" height="14" rx="3" fill="#ebf2ff"><title>2025-10-31 — 0 solved</title></rect>
<rect x="81" y="125" width="14" height="14" rx="3" fill="#ebf2ff"><title>2025-11-01 — 0 solved</title></rect>
<rect x="81" y="143" width="14" height="14" rx="3" fill="#ebf2ff"><title>2025-11-02 — 0 solved</title></rect>
<rect x="99" y="35" width="14" height="14" rx="3" fill="#ebf2ff"><title>2025-11-03 — 0 solved</title></rect>
<rect x="99" y="53" width="14" height="14" rx="3" fill="#ebf2ff"><title>2025-11-04 — 0 solved</title></rect>
<rect x="99" y="71" width="14" height="14" rx="3" fill="#ebf2ff"><title>2025-11-05 — 0 solved</title></rect>
<rect x="99" y="89" width="14" height="14" rx="3" fill="#ebf2ff"><title>2025-11-06 — 0 solved</title></rect>
<rect x="99" y="107" width="14" height="14" rx="3" fill="#ebf2ff"><title>2025-11-07 — 0 solved</title></rect>
<rect x="99" y="125" width="14" height="14" rx="3" fill="#ebf2ff"><title>2025-11-08 — 0 solved</title></rect>
<rect x="99" y="143" width="14" height="14" rx="3" fill="#ebf2ff"><title>2025-11-09 — 0 solved</title></rect>
<rect x="117" y="35" width="14" height="14" rx="3" fill="#ebf2ff"><title>2025-11-10 — 0 solved</title></rect>
<rect x="117" y="53" width="14" height="14" rx="3" fill="#ebf2ff"><title>2025-11-11 — 0 solved</title></rect>
<rect x="117" y="71" width="14" height="14" rx="3" fill="#ebf2ff"><title>2025-11-12 — 0 solved</title></rect>
<rect x="117" y="89" width="14" height="14" rx="3" fill="#ebf2ff"><title>2025-11-13 — 0 solved</title></rect>
<rect x="117" y="107" width="14" height="14" rx="3" fill="#ebf2ff"><title>2025-11-14 — 0 solved</title></rect>
<rect x="117" y="125" width="14" height="14" rx="3" fill="#ebf2ff"><title>2025-11-15 — 0 solved</title></rect>
<rect x="117" y="143" width="14" height="14" rx="3" fill="#ebf2ff"><title>2025-11-16 — 0 solved</title></rect>
<rect x="135" y="35" width="14" height="14" rx="3" fill="#ebf2ff"><title>2025-11-17 — 0 solved</title></rect>
<rect x="135" y="53" width="14" height="14" rx="3" fill="#ebf2ff"><title>2025-11-18 — 0 solved</title></rect>
<rect x="135" y="71" width="14" height="14" rx="3" fill="#ebf2ff"><title>2025-11-19 — 0 solved</title></rect>
<rect x="135" y="89" width="14" height="14" rx="3" fill="#ebf2ff"><title>2025-11-20 — 0 solved</title></rect>
<rect x="135" y="107" width="14" height="14" rx="3" fill="#4a90ff"><title>2025-11-21 — 3 solved</title></rect>
<rect x="135" y="125" width="14" height="14" rx="3" fill="#4a90ff"><title>2025-11-22 — 3 solved</title></rect>
<rect x="135" y="143" width="14" height="14" rx="3" fill="#ebf2ff"><title>2025-11-23 — 0 solved</title></rect>
<rect x="153" y="35" width="14" height="14" rx="3" fill="#ebf2ff"><title>2025-11-24 — 0 solved</title></rect>
<rect x="153" y="53" width="14" height="14" rx="3" fill="#ebf2ff"><title>2025-11-25 — 0 solved</title></rect>
<rect x="153" y="71" width="14" height="14" rx="3" fill="#4a90ff"><title>2025-11-26 — 5 solved</title></rect>
<rect x="153" y="89" width="14" height="14" rx="3" fill="#4a90ff"><title>2025-11-27 — 5 solved</title></rect>
<rect x="153" y="107" width="14" height="14" rx="3" fill="#7bb0ff"><title>2025-11-28 — 1 solved</title></rect>
<rect x="153" y="125" width="14" height="14" rx="3" fill="#ebf2ff"><title>2025-11-29 — 0 solved</title></rect>
<rect x="153" y="143" width="14" height="14" rx="3" fill="#ebf2ff"><title>2025-11-30 — 0 solved</title></rect>
<rect x="171" y="35" width="14" height="14" rx="3" fill="#4a90ff"><title>2025-12-01 — 4 solved</title></rect>
<rect x="171" y="53" width="14" height="14" rx="3" fill="#ebf2ff"><title>2025-12-02 — 0 solved</title></rect>
<rect x="171" y="71" width="14" height="14" rx="3" fill="#4a90ff"><title>2025-12-03 — 3 solved</title></rect>
<rect x="171" y="89" width="14" height="14" rx="3" fill="#ebf2ff"><title>2025-12-04 — 0 solved</title></rect>
<rect x="171" y="107" width="14" height="14" rx="3" fill="#7bb0ff"><title>2025-12-05 — 2 solved</title></rect>
<rect x="171" y="125" width="14" height="14" rx="3" fill="#ebf2ff"><title>2025-12-06 — 0 solved</title></rect>
<rect x="171" y="143" width="14" height="14" rx="3" fill="#ebf2ff"><title>2025-12-07 — 0 solved</title></rect>
<rect x="189" y="35" width="14" height="14" rx="3" fill="#ebf2ff"><title>2025-12-08 — 0 solved</title></rect>
<rect x="189" y="53" width="14" height="14" rx="3" fill="#4a90ff"><title>2025-12-09 — 3 solved</title></rect>
<rect x="189" y="71" width="14" height="14" rx="3" fill="#7bb0ff"><title>2025-12-10 — 2 solved</title></rect>
<rect x="189" y="89" width="14" height="14" rx="3" fill="#4a90ff"><title>2025-12-11 — 4 solved</title></rect>
<rect x="40" y="179" width="14" height="14" fill="#ebf2ff" />
<text x="62" y="191" font-size="13">0</text>
<rect x="110" y="179" width="14" height="14" fill="#7bb0ff" />
<text x="132" y="191" font-size="13">1–2</text>
<rect x="180" y="179" width="14" height="14" fill="#4a90ff" />
<text x="202" y="191" font-size="13">3–5</text>
<rect x="250" y="179" width="14" height="14" fill="#0066ff" />
<text x="272" y="191" font-size="13">5+</text>
</svg>