<svg width="780" height="226" viewBox="0 0 780 226" xmlns="http://www.w3.org/2000/svg">
<rect x="300" y="40" width="14" height="14" rx="3" fill="#ebf2ff"><title>2025-10-13 — 0 solved</title></rect>
<rect x="300" y="58" width="14" height="14" rx="3" fill="#ebf2ff"><title>2025-10-14 — 0 solved</title></rect>
<rect x="300" y="76" width="14" height="14" rx="3" fill="#ebf2ff"><title>2025-10-15 — 0 solved</title></rect>
<rect x="300" y="94" width="14" height="14" rx="3" fill="#ebf2ff"><title>2025-10-16 — 0 solved</title></rect>
<rect x="300" y="112" width="14" height="14" rx="3" fill="#ebf2ff"><title>2025-10-17 — 0 solved</title></rect>
<rect x="300" y="130" width="14" height="14" rx="3" fill="#ebf2ff"><title>2025-10-18 — 0 solved</title></rect>
<rect x="300" y="148" width="14" height="14" rx="3" fill="#ebf2ff"><title>2025-10-19 — 0 solved</title></rect>
<rect x="318" y="40" width="14" height="14" rx="3" fill="#ebf2ff"><title>2025-10-20 — 0 solved</title></rect>
<rect x="318" y="58" width="14" height="14" rx="3" fill="#ebf2ff"><title>2025-10-21 — 0 solved</title></rect>
<rect x="318" y="76" width="14" height="14" rx="3" fill="#ebf2ff"><title>2025-10-22 — 0 solved</title></rect>
<rect x="318" y="94" width="14" height="14" rx="3" fill="#ebf2ff"><title>2025-10-23 — 0 solved</title></rect>
<rect x="318" y="112" width="14" height="14" rx="3" fill="#ebf2ff"><title>2025-10-24 — 0 solved</title></rect>
<rect x="318" y="130" width="14" height="14" rx="3" fill="#ebf2ff"><title>2025-10-25 — 0 solved</title></rect>
<rect x="318" y="148" width="14" height="14" rx="3" fill="#ebf2ff"><title>2025-10-26 — 0 solved</title></rect>
<rect x="336" y="40" width="14" height="14" rx="3" fill="#ebf2ff"><title>2025-10-27 — 0 solved</title></rect>
<rect x="336" y="58" width="14" height="14" rx="3" fill="#ebf2ff"><title>2025-10-28 — 0 solved</title></rect>
<rect x="336" y="76" width="14" height="14" rx="3" fill="#ebf2ff"><title>2025-10-29 — 0 solved</title></rect>
<rect x="336" y="94" width="14" height="14" rx="3" fill="#ebf2ff"><title>2025-10-30 — 0 solved</title></rect>
<rect x="336" y="112" width="14" height="14" rx="3" fill="#ebf2ff"><title>2025-10-31 — 0 solved</title></rect>
<rect x="336" y="130" width="14" height="14" rx="3" fill="#ebf2ff"><title>2025-11-01 — 0 solved</title></rect>
<rect x="336" y="148" width="14" height="14" rx="3" fill="#ebf2ff"><title>2025-11-02 — 0 solved</title></rect>
<rect x="354" y="40" width="14" height="14" rx="3" fill="#ebf2ff"><title>2025-11-03 — 0 solved</title></rect>
<rect x="354" y="58" width="14" height="14" rx="3" fill="#ebf2ff"><title>2025-11-04 — 0 solved</title></rect>
<rect x="354" y="76" width="14" height="14" rx="3" fill="#ebf2ff"><title>2025-11-05 — 0 solved</title></rect>
<rect x="354" y="94" width="14" height="14" rx="3" fill="#ebf2ff"><title>2025-11-06 — 0 solved</title></rect>
<rect x="354" y="112" width="14" height="14" rx="3" fill="#ebf2ff"><title>2025-11-07 — 0 solved</title></rect>
<rect x="354" y="130" width="14" height="14" rx="3" fill="#ebf2ff"><title>2025-11-08 — 0 solved</title></rect>
<rect x="354" y="148" width="14" height="14" rx="3" fill="#ebf2ff"><title>2025-11-09 — 0 solved</title></rect>
<rect x="372" y="40" width="14" height="14" rx="3" fill="#ebf2ff"><title>2025-11-10 — 0 solved</title></rect>
<rect x="372" y="58" width="14" height="14" rx="3" fill="#ebf2ff"><title>2025-11-11 — 0 solved</title></rect>
<rect x="372" y="76" width="14" height="14" rx="3" fill="#ebf2ff"><title>2025-11-12 — 0 solved</title></rect>
<rect x="372" y="94" width="14" height="14" rx="3" fill="#ebf2ff"><title>2025-11-13 — 0 solved</title></rect>
<rect x="372" y="112" width="14" height="14" rx="3" fill="#ebf2ff"><title>2025-11-14 — 0 solved</title></rect>
<rect x="372" y="130" width="14" height="14" rx="3" fill="#ebf2ff"><title>2025-11-15 — 0 solved</title></rect>
<rect x="372" y="148" width="14" height="14" rx="3" fill="#ebf2ff"><title>2025-11-16 — 0 solved</title></rect>
<rect x="390" y="40" width="14" height="14" rx="3" fill="#ebf2ff"><title>2025-11-17 — 0 solved</title></rect>
<rect x="390" y="58" width="14" height="14" rx="3" fill="#ebf2ff"><title>2025-11-18 — 0 solved</title></rect>
<rect x="390" y="76" width="14" height="14" rx="3" fill="#ebf2ff"><title>2025-11-19 — 0 solved</title></rect>
<rect x="390" y="94" width="14" height="14" rx="3" fill="#ebf2ff"><title>2025-11-20 — 0 solved</title></rect>
<rect x="390" y="112" width="14" height="14" rx="3" fill="#4a90ff"><title>2025-11-21 — 3 solved</title></rect>
<rect x="390" y="130" width="14" height="14" rx="3" fill="#4a90ff"><title>2025-11-22 — 3 solved</title></rect>
<rect x="390" y="148" width="14" height="14" rx="3" fill="#ebf2ff"><title>2025-11-23 — 0 solved</title></rect>
<rect x="408" y="40" width="14" height="14" rx="3" fill="#ebf2ff"><title>2025-11-24 — 0 solved</title></rect>
<rect x="408" y="58" width="14" height="14" rx="3" fill="#ebf2ff"><title>2025-11-25 — 0 solved</title></rect>
<rect x="408" y="76" width="14" height="14" rx="3" fill="#4a90ff"><title>2025-11-26 — 5 solved</title></rect>
<rect x="408" y="94" width="14" height="14" rx="3" fill="#4a90ff"><title>2025-11-27 — 5 solved</title></rect>
<rect x="408" y="112" width="14" height="14" rx="3" fill="#7bb0ff"><title>2025-11-28 — 1 solved</title></rect>
<rect x="408" y="130" width="14" height="14" rx="3" fill="#ebf2ff"><title>2025-11-29 — 0 solved</title></rect>
<rect x="408" y="148" width="14" height="14" rx="3" fill="#ebf2ff"><title>2025-11-30 — 0 solved</title></rect>
<rect x="426" y="40" width="14" height="14" rx="3" fill="#4a90ff"><title>2025-12-01 — 4 solved</title></rect>
<rect x="426" y="58" width="14" height="14" rx="3" fill="#ebf2ff"><title>2025-12-02 — 0 solved</title></rect>
<rect x="426" y="76" width="14" height="14" rx="3" fill="#4a90ff"><title>2025-12-03 — 3 solved</title></rect>
<rect x="426" y="94" width="14" height="14" rx="3" fill="#ebf2ff"><title>2025-12-04 — 0 solved</title></rect>
<rect x="426" y="112" width="14" height="14" rx="3" fill="#7bb0ff"><title>2025-12-05 — 2 solved</title></rect>
<rect x="426" y="130" width="14" height="14" rx="3" fill="#ebf2ff"><title>2025-12-06 — 0 solved</title></rect>
<rect x="426" y="148" width="14" height="14" rx="3" fill="#ebf2ff"><title>2025-12-07 — 0 solved</title></rect>
<rect x="444" y="40" width="14" height="14" rx="3" fill="#ebf2ff"><title>2025-12-08 — 0 solved</title></rect>
<rect x="444" y="58" width="14" height="14" rx="3" fill="#4a90ff"><title>2025-12-09 — 3 solved</title></rect>
<rect x="444" y="76" width="14" height="14" rx="3" fill="#7bb0ff"><title>2025-12-10 — 2 solved</title></rect>
<rect x="444" y="94" width="14" height="14" rx="3" fill="#4a90ff"><title>2025-12-11 — 4 solved</title></rect>
<rect x="250" y="186" width="14" height="14" fill="#ebf2ff" />
<text x="272" y="198" font-size="14">0</text>
<rect x="320" y="186" width="14" height="14" fill="#7bb0ff" />
<text x="342" y="198" font-size="14">1–2</text>
<rect x="390" y="186" width="14" height="14" fill="#4a90ff" />
<text x="412" y="198" font-size="14">3–5</text>
<rect x="460" y="186" width="14" height="14" fill="#0066ff" />
<text x="482" y="198" font-size="14">5+</text>
</svg>