<svg width="218" height="174"><rect x="10" y="10" width="18" height="18" fill="#ebedf0" rx="3"/><rect x="10" y="32" width="18" height="18" fill="#ebedf0" rx="3"/><rect x="10" y="54" width="18" height="18" fill="#ebedf0" rx="3"/><rect x="10" y="76" width="18" height="18" fill="#ebedf0" rx="3"/><rect x="10" y="98" width="18" height="18" fill="#ebedf0" rx="3"/><rect x="10" y="120" width="18" height="18" fill="#ebedf0" rx="3"/><rect x="10" y="142" width="18" height="18" fill="#ebedf0" rx="3"/><rect x="32" y="10" width="18" height="18" fill="#ebedf0" rx="3"/><rect x="32" y="32" width="18" height="18" fill="#ebedf0" rx="3"/><rect x="32" y="54" width="18" height="18" fill="#ebedf0" rx="3"/><rect x="32" y="76" width="18" height="18" fill="#ebedf0" rx="3"/><rect x="32" y="98" width="18" height="18" fill="#ebedf0" rx="3"/><rect x="32" y="120" width="18" height="18" fill="#ebedf0" rx="3"/><rect x="32" y="142" width="18" height="18" fill="#ebedf0" rx="3"/><rect x="54" y="10" width="18" height="18" fill="#ebedf0" rx="3"/><rect x="54" y="32" width="18" height="18" fill="#ebedf0" rx="3"/><rect x="54" y="54" width="18" height="18" fill="#ebedf0" rx="3"/><rect x="54" y="76" width="18" height="18" fill="#ebedf0" rx="3"/><rect x="54" y="98" width="18" height="18" fill="#ebedf0" rx="3"/><rect x="54" y="120" width="18" height="18" fill="#ebedf0" rx="3"/><rect x="54" y="142" width="18" height="18" fill="#ebedf0" rx="3"/><rect x="76" y="10" width="18" height="18" fill="#ebedf0" rx="3"/><rect x="76" y="32" width="18" height="18" fill="#ebedf0" rx="3"/><rect x="76" y="54" width="18" height="18" fill="#ebedf0" rx="3"/><rect x="76" y="76" width="18" height="18" fill="#ebedf0" rx="3"/><rect x="76" y="98" width="18" height="18" fill="#ebedf0" rx="3"/><rect x="76" y="120" width="18" height="18" fill="#ebedf0" rx="3"/><rect x="76" y="142" width="18" height="18" fill="#ebedf0" rx="3"/><rect x="98" y="10" width="18" height="18" fill="#ebedf0" rx="3"/><rect x="98" y="32" width="18" height="18" fill="#ebedf0" rx="3"/><rect x="98" y="54" width="18" height="18" fill="#ebedf0" rx="3"/><rect x="98" y="76" width="18" height="18" fill="#ebedf0" rx="3"/><rect x="98" y="98" width="18" height="18" fill="#ebedf0" rx="3"/><rect x="98" y="120" width="18" height="18" fill="#ebedf0" rx="3"/><rect x="98" y="142" width="18" height="18" fill="#ebedf0" rx="3"/><rect x="120" y="10" width="18" height="18" fill="#ebedf0" rx="3"/><rect x="120" y="32" width="18" height="18" fill="#ebedf0" rx="3"/><rect x="120" y="54" width="18" height="18" fill="#ebedf0" rx="3"/><rect x="120" y="76" width="18" height="18" fill="#ebedf0" rx="3"/><rect x="120" y="98" width="18" height="18" fill="#7bc96f" rx="3"/><rect x="120" y="120" width="18" height="18" fill="#7bc96f" rx="3"/><rect x="120" y="142" width="18" height="18" fill="#ebedf0" rx="3"/><rect x="142" y="10" width="18" height="18" fill="#ebedf0" rx="3"/><rect x="142" y="32" width="18" height="18" fill="#ebedf0" rx="3"/><rect x="142" y="54" width="18" height="18" fill="#239a3b" rx="3"/><rect x="142" y="76" width="18" height="18" fill="#239a3b" rx="3"/><rect x="142" y="98" width="18" height="18" fill="#c6e48b" rx="3"/><rect x="142" y="120" width="18" height="18" fill="#ebedf0" rx="3"/><rect x="142" y="142" width="18" height="18" fill="#ebedf0" rx="3"/><rect x="164" y="10" width="18" height="18" fill="#7bc96f" rx="3"/><rect x="164" y="32" width="18" height="18" fill="#ebedf0" rx="3"/><rect x="164" y="54" width="18" height="18" fill="#7bc96f" rx="3"/><rect x="164" y="76" width="18" height="18" fill="#ebedf0" rx="3"/><rect x="164" y="98" width="18" height="18" fill="#7bc96f" rx="3"/><rect x="164" y="120" width="18" height="18" fill="#ebedf0" rx="3"/><rect x="164" y="142" width="18" height="18" fill="#ebedf0" rx="3"/><rect x="186" y="10" width="18" height="18" fill="#ebedf0" rx="3"/><rect x="186" y="32" width="18" height="18" fill="#7bc96f" rx="3"/><rect x="186" y="54" width="18" height="18" fill="#7bc96f" rx="3"/><rect x="186" y="76" width="18" height="18" fill="#7bc96f" rx="3"/></svg>