<svg width="180" height="186" xmlns="http://www.w3.org/2000/svg">
<rect x="0" y="0" width="14" height="14" rx="3" fill="#ebf2ff"><title>2026-04-10 — 0 solved</title></rect>
<rect x="0" y="18" width="14" height="14" rx="3" fill="#ebf2ff"><title>2026-04-11 — 0 solved</title></rect>
<rect x="0" y="36" width="14" height="14" rx="3" fill="#ebf2ff"><title>2026-04-12 — 0 solved</title></rect>
<rect x="0" y="54" width="14" height="14" rx="3" fill="#ebf2ff"><title>2026-04-13 — 0 solved</title></rect>
<rect x="0" y="72" width="14" height="14" rx="3" fill="#ebf2ff"><title>2026-04-14 — 0 solved</title></rect>
<rect x="0" y="90" width="14" height="14" rx="3" fill="#ebf2ff"><title>2026-04-15 — 0 solved</title></rect>
<rect x="0" y="108" width="14" height="14" rx="3" fill="#ebf2ff"><title>2026-04-16 — 0 solved</title></rect>
<rect x="18" y="0" width="14" height="14" rx="3" fill="#ebf2ff"><title>2026-04-17 — 0 solved</title></rect>
<rect x="18" y="18" width="14" height="14" rx="3" fill="#ebf2ff"><title>2026-04-18 — 0 solved</title></rect>
<rect x="18" y="36" width="14" height="14" rx="3" fill="#ebf2ff"><title>2026-04-19 — 0 solved</title></rect>
<rect x="18" y="54" width="14" height="14" rx="3" fill="#ebf2ff"><title>2026-04-20 — 0 solved</title></rect>
<rect x="18" y="72" width="14" height="14" rx="3" fill="#ebf2ff"><title>2026-04-21 — 0 solved</title></rect>
<rect x="18" y="90" width="14" height="14" rx="3" fill="#ebf2ff"><title>2026-04-22 — 0 solved</title></rect>
<rect x="18" y="108" width="14" height="14" rx="3" fill="#ebf2ff"><title>2026-04-23 — 0 solved</title></rect>
<rect x="36" y="0" width="14" height="14" rx="3" fill="#ebf2ff"><title>2026-04-24 — 0 solved</title></rect>
<rect x="36" y="18" width="14" height="14" rx="3" fill="#ebf2ff"><title>2026-04-25 — 0 solved</title></rect>
<rect x="36" y="36" width="14" height="14" rx="3" fill="#ebf2ff"><title>2026-04-26 — 0 solved</title></rect>
<rect x="36" y="54" width="14" height="14" rx="3" fill="#ebf2ff"><title>2026-04-27 — 0 solved</title></rect>
<rect x="36" y="72" width="14" height="14" rx="3" fill="#ebf2ff"><title>2026-04-28 — 0 solved</title></rect>
<rect x="36" y="90" width="14" height="14" rx="3" fill="#ebf2ff"><title>2026-04-29 — 0 solved</title></rect>
<rect x="36" y="108" width="14" height="14" rx="3" fill="#ebf2ff"><title>2026-04-30 — 0 solved</title></rect>
<rect x="54" y="0" width="14" height="14" rx="3" fill="#ebf2ff"><title>2026-05-01 — 0 solved</title></rect>
<rect x="54" y="18" width="14" height="14" rx="3" fill="#ebf2ff"><title>2026-05-02 — 0 solved</title></rect>
<rect x="54" y="36" width="14" height="14" rx="3" fill="#ebf2ff"><title>2026-05-03 — 0 solved</title></rect>
<rect x="54" y="54" width="14" height="14" rx="3" fill="#ebf2ff"><title>2026-05-04 — 0 solved</title></rect>
<rect x="54" y="72" width="14" height="14" rx="3" fill="#ebf2ff"><title>2026-05-05 — 0 solved</title></rect>
<rect x="54" y="90" width="14" height="14" rx="3" fill="#ebf2ff"><title>2026-05-06 — 0 solved</title></rect>
<rect x="54" y="108" width="14" height="14" rx="3" fill="#ebf2ff"><title>2026-05-07 — 0 solved</title></rect>
<rect x="72" y="0" width="14" height="14" rx="3" fill="#ebf2ff"><title>2026-05-08 — 0 solved</title></rect>
<rect x="72" y="18" width="14" height="14" rx="3" fill="#ebf2ff"><title>2026-05-09 — 0 solved</title></rect>
<rect x="72" y="36" width="14" height="14" rx="3" fill="#ebf2ff"><title>2026-05-10 — 0 solved</title></rect>
<rect x="72" y="54" width="14" height="14" rx="3" fill="#ebf2ff"><title>2026-05-11 — 0 solved</title></rect>
<rect x="72" y="72" width="14" height="14" rx="3" fill="#ebf2ff"><title>2026-05-12 — 0 solved</title></rect>
<rect x="72" y="90" width="14" height="14" rx="3" fill="#ebf2ff"><title>2026-05-13 — 0 solved</title></rect>
<rect x="72" y="108" width="14" height="14" rx="3" fill="#ebf2ff"><title>2026-05-14 — 0 solved</title></rect>
<rect x="90" y="0" width="14" height="14" rx="3" fill="#ebf2ff"><title>2026-05-15 — 0 solved</title></rect>
<rect x="90" y="18" width="14" height="14" rx="3" fill="#ebf2ff"><title>2026-05-16 — 0 solved</title></rect>
<rect x="90" y="36" width="14" height="14" rx="3" fill="#ebf2ff"><title>2026-05-17 — 0 solved</title></rect>
<rect x="90" y="54" width="14" height="14" rx="3" fill="#ebf2ff"><title>2026-05-18 — 0 solved</title></rect>
<rect x="90" y="72" width="14" height="14" rx="3" fill="#ebf2ff"><title>2026-05-19 — 0 solved</title></rect>
<rect x="90" y="90" width="14" height="14" rx="3" fill="#ebf2ff"><title>2026-05-20 — 0 solved</title></rect>
<rect x="90" y="108" width="14" height="14" rx="3" fill="#ebf2ff"><title>2026-05-21 — 0 solved</title></rect>
<rect x="108" y="0" width="14" height="14" rx="3" fill="#ebf2ff"><title>2026-05-22 — 0 solved</title></rect>
<rect x="108" y="18" width="14" height="14" rx="3" fill="#ebf2ff"><title>2026-05-23 — 0 solved</title></rect>
<rect x="108" y="36" width="14" height="14" rx="3" fill="#ebf2ff"><title>2026-05-24 — 0 solved</title></rect>
<rect x="108" y="54" width="14" height="14" rx="3" fill="#ebf2ff"><title>2026-05-25 — 0 solved</title></rect>
<rect x="108" y="72" width="14" height="14" rx="3" fill="#ebf2ff"><title>2026-05-26 — 0 solved</title></rect>
<rect x="108" y="90" width="14" height="14" rx="3" fill="#ebf2ff"><title>2026-05-27 — 0 solved</title></rect>
<rect x="108" y="108" width="14" height="14" rx="3" fill="#ebf2ff"><title>2026-05-28 — 0 solved</title></rect>
<rect x="126" y="0" width="14" height="14" rx="3" fill="#ebf2ff"><title>2026-05-29 — 0 solved</title></rect>
<rect x="126" y="18" width="14" height="14" rx="3" fill="#ebf2ff"><title>2026-05-30 — 0 solved</title></rect>
<rect x="126" y="36" width="14" height="14" rx="3" fill="#ebf2ff"><title>2026-05-31 — 0 solved</title></rect>
<rect x="126" y="54" width="14" height="14" rx="3" fill="#ebf2ff"><title>2026-06-01 — 0 solved</title></rect>
<rect x="126" y="72" width="14" height="14" rx="3" fill="#ebf2ff"><title>2026-06-02 — 0 solved</title></rect>
<rect x="126" y="90" width="14" height="14" rx="3" fill="#ebf2ff"><title>2026-06-03 — 0 solved</title></rect>
<rect x="126" y="108" width="14" height="14" rx="3" fill="#ebf2ff"><title>2026-06-04 — 0 solved</title></rect>
<rect x="144" y="0" width="14" height="14" rx="3" fill="#ebf2ff"><title>2026-06-05 — 0 solved</title></rect>
<rect x="144" y="18" width="14" height="14" rx="3" fill="#ebf2ff"><title>2026-06-06 — 0 solved</title></rect>
<rect x="144" y="36" width="14" height="14" rx="3" fill="#ebf2ff"><title>2026-06-07 — 0 solved</title></rect>
<rect x="144" y="54" width="14" height="14" rx="3" fill="#ebf2ff"><title>2026-06-08 — 0 solved</title></rect>
<rect x="0" y="146" width="12" height="12" fill="#ebf2ff" />
<text x="18" y="156" font-size="10">0</text>
<rect x="40" y="146" width="12" height="12" fill="#7bb0ff" />
<text x="58" y="156" font-size="10">1–2</text>
<rect x="80" y="146" width="12" height="12" fill="#4a90ff" />
<text x="98" y="156" font-size="10">3–4</text>
<rect x="120" y="146" width="12" height="12" fill="#0066ff" />
<text x="138" y="156" font-size="10">5+</text>
</svg>