<?xml version="1.0" encoding="utf-8" standalone="no"?>
<!DOCTYPE svg PUBLIC "-//W3C//DTD SVG 1.1//EN"
  "http://www.w3.org/Graphics/SVG/1.1/DTD/svg11.dtd">
<svg xmlns:xlink="http://www.w3.org/1999/xlink" width="187.2pt" height="187.2pt" viewBox="0 0 187.2 187.2" xmlns="http://www.w3.org/2000/svg" version="1.1">
 <metadata>
  <rdf:RDF xmlns:dc="http://purl.org/dc/elements/1.1/" xmlns:cc="http://creativecommons.org/ns#" xmlns:rdf="http://www.w3.org/1999/02/22-rdf-syntax-ns#">
   <cc:Work>
    <dc:type rdf:resource="http://purl.org/dc/dcmitype/StillImage"/>
    <dc:date>2025-12-11T05:55:14.094095</dc:date>
    <dc:format>image/svg+xml</dc:format>
    <dc:creator>
     <cc:Agent>
      <dc:title>Matplotlib v3.10.8, https://matplotlib.org/</dc:title>
     </cc:Agent>
    </dc:creator>
   </cc:Work>
  </rdf:RDF>
 </metadata>
 <defs>
  <style type="text/css">*{stroke-linejoin: round; stroke-linecap: butt}</style>
 </defs>
 <g id="figure_1">
  <g id="patch_1">
   <path d="M 0 187.2 
L 187.2 187.2 
L 187.2 0 
L 0 0 
z
" style="fill: #ffffff"/>
  </g>
  <g id="axes_1">
   <g id="patch_2">
    <path d="M 93.6 27.36 
C 83.849742 27.36 74.21868 29.512797 65.396383 33.664255 
C 56.574086 37.815712 48.776256 43.864327 42.561207 51.377029 
C 36.346158 58.889731 31.865846 67.682837 29.441054 77.126772 
C 27.016262 86.570707 26.706276 96.43457 28.53329 106.012124 
L 48.053303 102.288487 
C 46.774393 95.584199 46.991383 88.679495 48.688738 82.06874 
C 50.386092 75.457986 53.522311 69.302812 57.872845 64.043921 
C 62.223379 58.785029 67.68186 54.550998 73.857468 51.644978 
C 80.033076 48.738958 86.77482 47.232 93.6 47.232 
z
" style="fill: #4da3ff"/>
   </g>
   <g id="patch_3">
    <path d="M 28.53329 106.012118 
C 30.888394 118.358019 36.709361 129.78232 45.313103 138.944382 
C 53.916844 148.106444 64.953117 154.63328 77.126776 157.758945 
C 89.300435 160.88461 102.115888 160.481869 114.069265 156.597989 
C 126.022641 152.714106 136.627287 145.507206 144.638773 135.822997 
C 152.650259 126.138788 157.742418 114.371512 159.317675 101.902096 
C 160.892933 89.43268 158.887162 76.768726 153.535748 65.396386 
C 148.184334 54.024046 139.705139 44.406285 129.093187 37.67173 
C 118.481235 30.937175 106.168532 27.36 93.600009 27.36 
L 93.600006 47.232 
C 102.397972 47.232 111.016865 49.736022 118.445231 54.450211 
C 125.873597 59.1644 131.809034 65.896832 135.555024 73.85747 
C 139.301014 81.818108 140.705053 90.682876 139.602373 99.411467 
C 138.499692 108.140058 134.935181 116.377151 129.327141 123.156098 
C 123.719101 129.935044 116.295849 134.979874 107.928485 137.698592 
C 99.561122 140.417308 90.590304 140.699227 82.068743 138.511262 
C 73.547182 136.323296 65.821791 131.754511 59.799172 125.341067 
C 53.776553 118.927624 49.701876 110.930614 48.053303 102.288483 
z
" style="fill: #d9eaff"/>
   </g>
   <g id="matplotlib.axis_1"/>
   <g id="matplotlib.axis_2"/>
   <g id="text_1">
    <!-- 28% -->
    <g transform="translate(75.185 98.04875) scale(0.16 -0.16)">
     <defs>
      <path id="NanumGothic-32" d="M 576 -301 
Q 506 -301 470 -297 
Q 435 -294 419 -278 
Q 403 -262 400 -227 
Q 397 -192 397 -122 
L 403 19 
Q 403 102 454 154 
L 1510 1318 
Q 2688 2592 2688 3251 
Q 2688 3635 2432 3891 
Q 2182 4141 1811 4141 
Q 1293 4141 730 3853 
Q 640 3808 627 3891 
L 589 4102 
Q 570 4211 653 4237 
Q 979 4384 1241 4454 
Q 1504 4525 1779 4525 
Q 2394 4525 2758 4218 
Q 3168 3885 3168 3270 
Q 3168 3034 3053 2752 
Q 2938 2470 2733 2163 
Q 2605 1984 2371 1696 
Q 2138 1408 1837 1082 
Q 1613 838 1392 588 
Q 1171 339 947 96 
L 3187 96 
Q 3277 96 3277 6 
L 3277 -211 
Q 3277 -301 3187 -301 
L 576 -301 
z
" transform="scale(0.015625)"/>
      <path id="NanumGothic-38" d="M 2944 3360 
Q 2944 3725 2624 3936 
Q 2342 4134 1965 4134 
Q 1555 4134 1274 3930 
Q 966 3725 966 3360 
Q 966 3027 1286 2758 
Q 1376 2675 1526 2579 
Q 1677 2483 1882 2387 
Q 1933 2362 1965 2365 
Q 1997 2368 2061 2400 
Q 2470 2624 2707 2870 
Q 2944 3117 2944 3360 
z
M 3104 960 
Q 3104 1312 2784 1574 
Q 2682 1658 2496 1760 
Q 2310 1862 2042 1984 
Q 1958 2029 1856 1984 
Q 1606 1888 1414 1782 
Q 1222 1677 1107 1587 
Q 979 1459 899 1289 
Q 819 1120 819 928 
Q 819 538 1184 288 
Q 1517 38 1965 38 
Q 2426 38 2739 256 
Q 3104 506 3104 960 
z
M 3552 928 
Q 3552 614 3421 364 
Q 3290 115 3046 -51 
Q 2835 -192 2560 -269 
Q 2285 -346 1965 -346 
Q 1651 -346 1379 -262 
Q 1107 -179 883 -32 
Q 640 141 505 387 
Q 371 634 371 928 
Q 371 1427 704 1741 
Q 960 1984 1491 2182 
Q 518 2662 518 3411 
Q 518 3680 652 3888 
Q 787 4096 1030 4262 
Q 1235 4390 1468 4457 
Q 1702 4525 1965 4525 
Q 2272 4525 2515 4457 
Q 2758 4390 2957 4256 
Q 3398 3949 3398 3411 
Q 3398 2746 2400 2182 
Q 2662 2086 2870 1971 
Q 3078 1856 3206 1741 
Q 3552 1434 3552 928 
z
" transform="scale(0.015625)"/>
      <path id="NanumGothic-25" d="M 2522 3283 
Q 2522 4192 1869 4192 
Q 1222 4192 1222 3283 
Q 1222 2906 1357 2675 
Q 1536 2381 1869 2381 
Q 2208 2381 2387 2675 
Q 2522 2906 2522 3283 
z
M 5741 986 
Q 5741 1888 5094 1888 
Q 4435 1888 4435 986 
Q 4435 614 4576 378 
Q 4742 77 5094 77 
Q 5741 77 5741 986 
z
M 4992 4659 
Q 5075 4659 5081 4646 
Q 5088 4634 5050 4563 
L 2342 -282 
Q 2298 -358 2275 -371 
Q 2253 -384 2163 -384 
L 1978 -384 
Q 1888 -384 1878 -371 
Q 1869 -358 1920 -269 
L 4621 4576 
Q 4653 4640 4672 4649 
Q 4691 4659 4762 4659 
L 4992 4659 
z
M 2944 3283 
Q 2944 2714 2694 2387 
Q 2554 2208 2346 2112 
Q 2138 2016 1869 2016 
Q 1600 2016 1395 2112 
Q 1190 2208 1050 2387 
Q 800 2726 800 3283 
Q 800 3853 1050 4192 
Q 1338 4557 1869 4557 
Q 2406 4557 2694 4192 
Q 2944 3866 2944 3283 
z
M 6163 986 
Q 6163 410 5914 83 
Q 5632 -275 5094 -275 
Q 4550 -275 4269 83 
Q 4026 403 4026 986 
Q 4026 1562 4269 1894 
Q 4410 2074 4618 2170 
Q 4826 2266 5094 2266 
Q 5638 2266 5914 1894 
Q 6163 1568 6163 986 
z
" transform="scale(0.015625)"/>
     </defs>
     <use xlink:href="#NanumGothic-32"/>
     <use xlink:href="#NanumGothic-38" transform="translate(60.599991 0)"/>
     <use xlink:href="#NanumGothic-25" transform="translate(121.199982 0)"/>
    </g>
   </g>
  </g>
 </g>
</svg>
