<?xml version="1.0" encoding="utf-8" standalone="no"?>
<!DOCTYPE svg PUBLIC "-//W3C//DTD SVG 1.1//EN"
  "http://www.w3.org/Graphics/SVG/1.1/DTD/svg11.dtd">
<svg xmlns:xlink="http://www.w3.org/1999/xlink" width="187.2pt" height="187.2pt" viewBox="0 0 187.2 187.2" xmlns="http://www.w3.org/2000/svg" version="1.1">
 <metadata>
  <rdf:RDF xmlns:dc="http://purl.org/dc/elements/1.1/" xmlns:cc="http://creativecommons.org/ns#" xmlns:rdf="http://www.w3.org/1999/02/22-rdf-syntax-ns#">
   <cc:Work>
    <dc:type rdf:resource="http://purl.org/dc/dcmitype/StillImage"/>
    <dc:date>2025-12-11T05:55:14.124907</dc:date>
    <dc:format>image/svg+xml</dc:format>
    <dc:creator>
     <cc:Agent>
      <dc:title>Matplotlib v3.10.8, https://matplotlib.org/</dc:title>
     </cc:Agent>
    </dc:creator>
   </cc:Work>
  </rdf:RDF>
 </metadata>
 <defs>
  <style type="text/css">*{stroke-linejoin: round; stroke-linecap: butt}</style>
 </defs>
 <g id="figure_1">
  <g id="patch_1">
   <path d="M 0 187.2 
L 187.2 187.2 
L 187.2 0 
L 0 0 
z
" style="fill: #ffffff"/>
  </g>
  <g id="axes_1">
   <g id="patch_2">
    <path d="M 93.6 27.36 
C 81.031478 27.36 68.718785 30.937168 58.106832 37.671719 
C 47.494878 44.40627 39.01567 54.024044 33.664255 65.396383 
C 28.312839 76.768722 26.307068 89.432663 27.882323 101.902079 
C 29.457577 114.371494 34.549729 126.138759 42.561207 135.822971 
C 50.572686 145.507182 61.177348 152.714101 73.130723 156.597986 
C 85.084098 160.481872 97.89957 160.884612 110.073228 157.758946 
C 122.246887 154.63328 133.283147 148.106451 141.88689 138.944391 
C 150.490634 129.782332 156.311607 118.358024 158.66671 106.012124 
L 139.146697 102.288487 
C 137.498125 110.930617 133.423444 118.927632 127.400823 125.341074 
C 121.378203 131.754516 113.652821 136.323296 105.13126 138.511262 
C 96.609699 140.699229 87.638868 140.41731 79.271506 137.69859 
C 70.904143 134.979871 63.48088 129.935028 57.872845 123.156079 
C 52.26481 116.377131 48.700304 108.140046 47.597626 99.411455 
C 46.494948 90.682864 47.898987 81.818105 51.644978 73.857468 
C 55.390969 65.896831 61.326414 59.164389 68.754782 54.450203 
C 76.18315 49.736018 84.802035 47.232 93.6 47.232 
z
" style="fill: #4da3ff"/>
   </g>
   <g id="patch_3">
    <path d="M 158.66671 106.012131 
C 160.493721 96.434577 160.183739 86.57073 157.758953 77.126795 
C 155.334163 67.682859 150.853847 58.889739 144.638797 51.377035 
C 138.423747 43.86433 130.625911 37.815709 121.803612 33.664252 
C 112.981313 29.512794 103.350267 27.36 93.600009 27.36 
L 93.600006 47.232 
C 100.425187 47.232 107.166919 48.738956 113.342528 51.644976 
C 119.518137 54.550997 124.976623 58.785031 129.327158 64.043924 
C 133.677693 69.302818 136.813914 75.458001 138.511267 82.068756 
C 140.208617 88.679511 140.425605 95.584204 139.146697 102.288492 
z
" style="fill: #d9eaff"/>
   </g>
   <g id="matplotlib.axis_1"/>
   <g id="matplotlib.axis_2"/>
   <g id="text_1">
    <!-- 72% -->
    <g transform="translate(75.185 98.04875) scale(0.16 -0.16)">
     <defs>
      <path id="NanumGothic-37" d="M 1549 -211 
Q 1504 -301 1421 -301 
L 1101 -301 
Q 1062 -301 1046 -275 
Q 1030 -250 1050 -211 
L 2912 4083 
L 538 4083 
Q 448 4083 448 4173 
L 448 4384 
Q 448 4474 538 4474 
L 3194 4474 
Q 3328 4474 3350 4451 
Q 3373 4429 3373 4294 
L 3373 4134 
Q 3373 4083 3354 4045 
L 1549 -211 
z
" transform="scale(0.015625)"/>
      <path id="NanumGothic-32" d="M 576 -301 
Q 506 -301 470 -297 
Q 435 -294 419 -278 
Q 403 -262 400 -227 
Q 397 -192 397 -122 
L 403 19 
Q 403 102 454 154 
L 1510 1318 
Q 2688 2592 2688 3251 
Q 2688 3635 2432 3891 
Q 2182 4141 1811 4141 
Q 1293 4141 730 3853 
Q 640 3808 627 3891 
L 589 4102 
Q 570 4211 653 4237 
Q 979 4384 1241 4454 
Q 1504 4525 1779 4525 
Q 2394 4525 2758 4218 
Q 3168 3885 3168 3270 
Q 3168 3034 3053 2752 
Q 2938 2470 2733 2163 
Q 2605 1984 2371 1696 
Q 2138 1408 1837 1082 
Q 1613 838 1392 588 
Q 1171 339 947 96 
L 3187 96 
Q 3277 96 3277 6 
L 3277 -211 
Q 3277 -301 3187 -301 
L 576 -301 
z
" transform="scale(0.015625)"/>
      <path id="NanumGothic-25" d="M 2522 3283 
Q 2522 4192 1869 4192 
Q 1222 4192 1222 3283 
Q 1222 2906 1357 2675 
Q 1536 2381 1869 2381 
Q 2208 2381 2387 2675 
Q 2522 2906 2522 3283 
z
M 5741 986 
Q 5741 1888 5094 1888 
Q 4435 1888 4435 986 
Q 4435 614 4576 378 
Q 4742 77 5094 77 
Q 5741 77 5741 986 
z
M 4992 4659 
Q 5075 4659 5081 4646 
Q 5088 4634 5050 4563 
L 2342 -282 
Q 2298 -358 2275 -371 
Q 2253 -384 2163 -384 
L 1978 -384 
Q 1888 -384 1878 -371 
Q 1869 -358 1920 -269 
L 4621 4576 
Q 4653 4640 4672 4649 
Q 4691 4659 4762 4659 
L 4992 4659 
z
M 2944 3283 
Q 2944 2714 2694 2387 
Q 2554 2208 2346 2112 
Q 2138 2016 1869 2016 
Q 1600 2016 1395 2112 
Q 1190 2208 1050 2387 
Q 800 2726 800 3283 
Q 800 3853 1050 4192 
Q 1338 4557 1869 4557 
Q 2406 4557 2694 4192 
Q 2944 3866 2944 3283 
z
M 6163 986 
Q 6163 410 5914 83 
Q 5632 -275 5094 -275 
Q 4550 -275 4269 83 
Q 4026 403 4026 986 
Q 4026 1562 4269 1894 
Q 4410 2074 4618 2170 
Q 4826 2266 5094 2266 
Q 5638 2266 5914 1894 
Q 6163 1568 6163 986 
z
" transform="scale(0.015625)"/>
     </defs>
     <use xlink:href="#NanumGothic-37"/>
     <use xlink:href="#NanumGothic-32" transform="translate(60.599991 0)"/>
     <use xlink:href="#NanumGothic-25" transform="translate(121.199982 0)"/>
    </g>
   </g>
  </g>
 </g>
</svg>
