<?xml version="1.0" encoding="utf-8" standalone="no"?>
<!DOCTYPE svg PUBLIC "-//W3C//DTD SVG 1.1//EN"
  "http://www.w3.org/Graphics/SVG/1.1/DTD/svg11.dtd">
<svg xmlns:xlink="http://www.w3.org/1999/xlink" width="216pt" height="216pt" viewBox="0 0 216 216" xmlns="http://www.w3.org/2000/svg" version="1.1">
 <metadata>
  <rdf:RDF xmlns:dc="http://purl.org/dc/elements/1.1/" xmlns:cc="http://creativecommons.org/ns#" xmlns:rdf="http://www.w3.org/1999/02/22-rdf-syntax-ns#">
   <cc:Work>
    <dc:type rdf:resource="http://purl.org/dc/dcmitype/StillImage"/>
    <dc:date>2025-12-11T06:24:12.131853</dc:date>
    <dc:format>image/svg+xml</dc:format>
    <dc:creator>
     <cc:Agent>
      <dc:title>Matplotlib v3.10.8, https://matplotlib.org/</dc:title>
     </cc:Agent>
    </dc:creator>
   </cc:Work>
  </rdf:RDF>
 </metadata>
 <defs>
  <style type="text/css">*{stroke-linejoin: round; stroke-linecap: butt}</style>
 </defs>
 <g id="figure_1">
  <g id="patch_1">
   <path d="M 0 216 
L 216 216 
L 216 0 
L 0 0 
L 0 216 
z
" style="fill: none"/>
  </g>
  <g id="axes_1">
   <g id="patch_2">
    <path d="M 110.7 42.552 
C 110.7 42.552 110.7 42.552 110.7 42.552 
L 110.7 65.8368 
C 110.7 65.8368 110.7 65.8368 110.7 65.8368 
z
" style="fill: #4db6e8"/>
   </g>
   <g id="patch_3">
    <path d="M 177.228 109.08 
C 177.228 100.343623 175.507124 91.692196 172.163858 83.620837 
C 168.820591 75.549477 163.919951 68.215151 157.7424 62.0376 
C 151.564849 55.860049 144.230523 50.959409 136.159163 47.616142 
C 128.087804 44.272876 119.436377 42.552 110.7 42.552 
C 101.963623 42.552 93.312196 44.272876 85.240837 47.616142 
C 77.169477 50.959409 69.835151 55.860049 63.6576 62.0376 
C 57.480049 68.215151 52.579409 75.549477 49.236142 83.620837 
C 45.892876 91.692196 44.172 100.343623 44.172 109.08 
C 44.172 117.816377 45.892876 126.467804 49.236142 134.539163 
C 52.579409 142.610523 57.480049 149.944849 63.6576 156.1224 
C 69.835151 162.299951 77.169477 167.200591 85.240837 170.543858 
C 93.312196 173.887124 101.963623 175.608 110.7 175.608 
C 119.436377 175.608 128.087804 173.887124 136.159163 170.543858 
C 144.230523 167.200591 151.564849 162.299951 157.7424 156.1224 
C 163.919951 149.944849 168.820591 142.610523 172.163858 134.539163 
C 175.507124 126.467804 177.228 117.816377 177.228 109.08 
M 153.9432 109.08 
C 153.9432 114.758645 152.824631 120.382072 150.651507 125.628456 
C 148.478384 130.87484 145.292968 135.642152 141.27756 139.65756 
C 137.262152 143.672968 132.49484 146.858384 127.248456 149.031507 
C 122.002072 151.204631 116.378645 152.3232 110.7 152.3232 
C 105.021355 152.3232 99.397928 151.204631 94.151544 149.031507 
C 88.90516 146.858384 84.137848 143.672968 80.12244 139.65756 
C 76.107032 135.642152 72.921616 130.87484 70.748493 125.628456 
C 68.575369 120.382072 67.4568 114.758645 67.4568 109.08 
C 67.4568 103.401355 68.575369 97.777928 70.748493 92.531544 
C 72.921616 87.28516 76.107032 82.517848 80.12244 78.50244 
C 84.137848 74.487032 88.90516 71.301616 94.151544 69.128493 
C 99.397928 66.955369 105.021355 65.8368 110.7 65.8368 
C 116.378645 65.8368 122.002072 66.955369 127.248456 69.128493 
C 132.49484 71.301616 137.262152 74.487032 141.27756 78.50244 
C 145.292968 82.517848 148.478384 87.28516 150.651507 92.531544 
C 152.824631 97.777928 153.9432 103.401355 153.9432 109.08 
z
" style="fill: #e8f4fb"/>
   </g>
   <g id="matplotlib.axis_1"/>
   <g id="matplotlib.axis_2"/>
   <g id="text_1">
    <!-- 0 -->
    <g transform="translate(105.61 113.495) scale(0.16 -0.16)">
     <defs>
      <path id="DejaVuSans-30" d="M 2034 4250 
Q 1547 4250 1301 3770 
Q 1056 3291 1056 2328 
Q 1056 1369 1301 889 
Q 1547 409 2034 409 
Q 2525 409 2770 889 
Q 3016 1369 3016 2328 
Q 3016 3291 2770 3770 
Q 2525 4250 2034 4250 
z
M 2034 4750 
Q 2819 4750 3233 4129 
Q 3647 3509 3647 2328 
Q 3647 1150 3233 529 
Q 2819 -91 2034 -91 
Q 1250 -91 836 529 
Q 422 1150 422 2328 
Q 422 3509 836 4129 
Q 1250 4750 2034 4750 
z
" transform="scale(0.015625)"/>
     </defs>
     <use xlink:href="#DejaVuSans-30"/>
    </g>
   </g>
  </g>
 </g>
</svg>
